<svg style="overflow: hidden; position: relative;" xmlns="http://www.w3.org/2000/svg" xmlns:xlink="http://www.w3.org/1999/xlink" width="1000" version="1.1" height="1000"><circle transform="matrix(1,0,0,1,0,0)" cx="491.4" cy="491.4" r="5" fill="#f00" stroke="#000"></circle><path transform="matrix(1,0,0,1,0,0)" fill="none" stroke="#000000" d="M491.4,491.4L461.4,491.4" stroke-width="2" arrow-end="classic-wide-long"></path><rect transform="matrix(1,0,0,1,0,0)" x="0" y="0" width="1000" height="1000" rx="0" ry="0" fill="none" stroke="#000" stroke-width="7"></rect><path transform="matrix(1,0,0,1,0,0)" fill="none" stroke="#000" d="M0,0L1000,0"></path><path transform="matrix(1,0,0,1,0,0)" fill="none" stroke="#000" d="M0,0L0,1000" stroke-width="0.5"></path><path transform="matrix(1,0,0,1,0,0)" fill="none" stroke="#000" d="M0,37.8L1000,37.8"></path><path transform="matrix(1,0,0,1,0,0)" fill="none" stroke="#000" d="M37.8,0L37.8,1000" stroke-width="0.5"></path><path transform="matrix(1,0,0,1,0,0)" fill="none" stroke="#000" d="M0,75.6L1000,75.6"></path><path transform="matrix(1,0,0,1,0,0)" fill="none" stroke="#000" d="M75.6,0L75.6,1000" stroke-width="0.5"></path><path transform="matrix(1,0,0,1,0,0)" fill="none" stroke="#000" d="M0,113.39999999999999L1000,113.39999999999999"></path><path transform="matrix(1,0,0,1,0,0)" fill="none" stroke="#000" d="M113.39999999999999,0L113.39999999999999,1000" stroke-width="0.5"></path><path transform="matrix(1,0,0,1,0,0)" fill="none" stroke="#000" d="M0,151.2L1000,151.2"></path><path transform="matrix(1,0,0,1,0,0)" fill="none" stroke="#000" d="M151.2,0L151.2,1000" stroke-width="0.5"></path><path transform="matrix(1,0,0,1,0,0)" fill="none" stroke="#000" d="M0,189L1000,189"></path><path transform="matrix(1,0,0,1,0,0)" fill="none" stroke="#000" d="M189,0L189,1000" stroke-width="0.5"></path><path transform="matrix(1,0,0,1,0,0)" fill="none" stroke="#000" d="M0,226.79999999999998L1000,226.79999999999998"></path><path transform="matrix(1,0,0,1,0,0)" fill="none" stroke="#000" d="M226.79999999999998,0L226.79999999999998,1000" stroke-width="0.5"></path><path transform="matrix(1,0,0,1,0,0)" fill="none" stroke="#000" d="M0,264.59999999999997L1000,264.59999999999997"></path><path transform="matrix(1,0,0,1,0,0)" fill="none" stroke="#000" d="M264.59999999999997,0L264.59999999999997,1000" stroke-width="0.5"></path><path transform="matrix(1,0,0,1,0,0)" fill="none" stroke="#000" d="M0,302.4L1000,302.4"></path><path transform="matrix(1,0,0,1,0,0)" fill="none" stroke="#000" d="M302.4,0L302.4,1000" stroke-width="0.5"></path><path transform="matrix(1,0,0,1,0,0)" fill="none" stroke="#000" d="M0,340.2L1000,340.2"></path><path transform="matrix(1,0,0,1,0,0)" fill="none" stroke="#000" d="M340.2,0L340.2,1000" stroke-width="0.5"></path><path transform="matrix(1,0,0,1,0,0)" fill="none" stroke="#000" d="M0,378L1000,378"></path><path transform="matrix(1,0,0,1,0,0)" fill="none" stroke="#000" d="M378,0L378,1000" stroke-width="0.5"></path><path transform="matrix(1,0,0,1,0,0)" fill="none" stroke="#000" d="M0,415.79999999999995L1000,415.79999999999995"></path><path transform="matrix(1,0,0,1,0,0)" fill="none" stroke="#000" d="M415.79999999999995,0L415.79999999999995,1000" stroke-width="0.5"></path><path transform="matrix(1,0,0,1,0,0)" fill="none" stroke="#000" d="M0,453.59999999999997L1000,453.59999999999997"></path><path transform="matrix(1,0,0,1,0,0)" fill="none" stroke="#000" d="M453.59999999999997,0L453.59999999999997,1000" stroke-width="0.5"></path><path transform="matrix(1,0,0,1,0,0)" fill="none" stroke="#000" d="M0,491.4L1000,491.4"></path><path transform="matrix(1,0,0,1,0,0)" fill="none" stroke="#000" d="M491.4,0L491.4,1000" stroke-width="0.5"></path><path transform="matrix(1,0,0,1,0,0)" fill="none" stroke="#000" d="M0,529.1999999999999L1000,529.1999999999999"></path><path transform="matrix(1,0,0,1,0,0)" fill="none" stroke="#000" d="M529.1999999999999,0L529.1999999999999,1000" stroke-width="0.5"></path><path transform="matrix(1,0,0,1,0,0)" fill="none" stroke="#000" d="M0,567L1000,567"></path><path transform="matrix(1,0,0,1,0,0)" fill="none" stroke="#000" d="M567,0L567,1000" stroke-width="0.5"></path><path transform="matrix(1,0,0,1,0,0)" fill="none" stroke="#000" d="M0,604.8L1000,604.8"></path><path transform="matrix(1,0,0,1,0,0)" fill="none" stroke="#000" d="M604.8,0L604.8,1000" stroke-width="0.5"></path><path transform="matrix(1,0,0,1,0,0)" fill="none" stroke="#000" d="M0,642.5999999999999L1000,642.5999999999999"></path><path transform="matrix(1,0,0,1,0,0)" fill="none" stroke="#000" d="M642.5999999999999,0L642.5999999999999,1000" stroke-width="0.5"></path><path transform="matrix(1,0,0,1,0,0)" fill="none" stroke="#000" d="M0,680.4L1000,680.4"></path><path transform="matrix(1,0,0,1,0,0)" fill="none" stroke="#000" d="M680.4,0L680.4,1000" stroke-width="0.5"></path><path transform="matrix(1,0,0,1,0,0)" fill="none" stroke="#000" d="M0,718.1999999999999L1000,718.1999999999999"></path><path transform="matrix(1,0,0,1,0,0)" fill="none" stroke="#000" d="M718.1999999999999,0L718.1999999999999,1000" stroke-width="0.5"></path><path transform="matrix(1,0,0,1,0,0)" fill="none" stroke="#000" d="M0,756L1000,756"></path><path transform="matrix(1,0,0,1,0,0)" fill="none" stroke="#000" d="M756,0L756,1000" stroke-width="0.5"></path><path transform="matrix(1,0,0,1,0,0)" fill="none" stroke="#000" d="M0,793.8L1000,793.8"></path><path transform="matrix(1,0,0,1,0,0)" fill="none" stroke="#000" d="M793.8,0L793.8,1000" stroke-width="0.5"></path><path transform="matrix(1,0,0,1,0,0)" fill="none" stroke="#000" d="M0,831.5999999999999L1000,831.5999999999999"></path><path transform="matrix(1,0,0,1,0,0)" fill="none" stroke="#000" d="M831.5999999999999,0L831.5999999999999,1000" stroke-width="0.5"></path><path transform="matrix(1,0,0,1,0,0)" fill="none" stroke="#000" d="M0,869.4L1000,869.4"></path><path transform="matrix(1,0,0,1,0,0)" fill="none" stroke="#000" d="M869.4,0L869.4,1000" stroke-width="0.5"></path><path transform="matrix(1,0,0,1,0,0)" fill="none" stroke="#000" d="M0,907.1999999999999L1000,907.1999999999999"></path><path transform="matrix(1,0,0,1,0,0)" fill="none" stroke="#000" d="M907.1999999999999,0L907.1999999999999,1000" stroke-width="0.5"></path><path transform="matrix(1,0,0,1,0,0)" fill="none" stroke="#000" d="M0,944.9999999999999L1000,944.9999999999999"></path><path transform="matrix(1,0,0,1,0,0)" fill="none" stroke="#000" d="M944.9999999999999,0L944.9999999999999,1000" stroke-width="0.5"></path><path transform="matrix(1,0,0,1,0,0)" fill="none" stroke="#000" d="M0,982.8L1000,982.8"></path><path transform="matrix(1,0,0,1,0,0)" fill="none" stroke="#000" d="M982.8,0L982.8,1000" stroke-width="0.5"></path><circle transform="matrix(1,0,0,1,0,0)" cx="235.07999999999998" cy="491.3999999999999" r="1" fill="none" stroke="rgb(0,66.045,0)"></circle><circle transform="matrix(1,0,0,1,0,0)" cx="233.767189000129" cy="483.3035627400216" r="1" fill="none" stroke="rgb(0,70.38,0)"></circle><circle transform="matrix(1,0,0,1,0,0)" cx="232.711471991392" cy="475.124697338002" r="1" fill="none" stroke="rgb(0,65.535,0)"></circle><circle transform="matrix(1,0,0,1,0,0)" cx="231.55832723859606" cy="466.8377302238678" r="1" fill="none" stroke="rgb(0,53.55,0)"></circle><circle transform="matrix(1,0,0,1,0,0)" cx="230.31509520208203" cy="458.41730625521785" r="1" fill="none" stroke="rgb(0,47.43,0)"></circle><circle transform="matrix(1,0,0,1,0,0)" cx="229.16874557199088" cy="449.8666495318189" r="1" fill="none" stroke="rgb(0,40.29,0)"></circle><circle transform="matrix(1,0,0,1,0,0)" cx="228.304182764828" cy="441.21178870135975" r="1" fill="none" stroke="rgb(0,34.935,0)"></circle><circle transform="matrix(1,0,0,1,0,0)" cx="227.55114424224013" cy="432.422793256031" r="1" fill="none" stroke="rgb(0,31.11,0)"></circle><circle transform="matrix(1,0,0,1,0,0)" cx="227.09302699121906" cy="423.5375035904548" r="1" fill="none" stroke="rgb(0,28.815,0)"></circle><circle transform="matrix(1,0,0,1,0,0)" cx="227.1079718279916" cy="414.61606779588374" r="1" fill="none" stroke="rgb(0,33.915,0)"></circle><circle transform="matrix(1,0,0,1,0,0)" cx="226.91118281831768" cy="405.46237386432756" r="1" fill="none" stroke="rgb(0,34.68,0)"></circle><circle transform="matrix(1,0,0,1,0,0)" cx="228.0474727697121" cy="396.5872561233434" r="1" fill="none" stroke="rgb(0,138.465,0)"></circle><circle transform="matrix(1,0,0,1,0,0)" cx="226.80420764592122" cy="386.6391147969949" r="1" fill="none" stroke="rgb(0,231.795,0)"></circle><circle transform="matrix(1,0,0,1,0,0)" cx="227.41705946825942" cy="377.1643807378123" r="1" fill="none" stroke="rgb(0,231.795,0)"></circle><circle transform="matrix(1,0,0,1,0,0)" cx="229.34398906479112" cy="368.08580157692427" r="1" fill="none" stroke="rgb(0,245.82,0)"></circle><circle transform="matrix(1,0,0,1,0,0)" cx="232.70516576714897" cy="359.5883983056207" r="1" fill="none" stroke="rgb(0,255,0)"></circle><circle transform="matrix(1,0,0,1,0,0)" cx="239.4968817545906" cy="352.9150888427216" r="1" fill="none" stroke="rgb(0,136.17,0)"></circle><circle transform="matrix(1,0,0,1,0,0)" cx="246.91483464979945" cy="346.81187627026526" r="1" fill="none" stroke="rgb(0,255,0)"></circle><circle transform="matrix(1,0,0,1,0,0)" cx="254.008760465853" cy="340.74693832370605" r="1" fill="none" stroke="rgb(0,255,0)"></circle><circle transform="matrix(1,0,0,1,0,0)" cx="262.2821393144603" cy="335.69166266740353" r="1" fill="none" stroke="rgb(0,55.845,0)"></circle><circle transform="matrix(1,0,0,1,0,0)" cx="269.9073272800264" cy="330.47615362736747" r="1" fill="none" stroke="rgb(0,59.16,0)"></circle><circle transform="matrix(1,0,0,1,0,0)" cx="277.4892350496525" cy="325.473802435067" r="1" fill="none" stroke="rgb(0,62.985,0)"></circle><circle transform="matrix(1,0,0,1,0,0)" cx="284.8870406712323" cy="320.557622267557" r="1" fill="none" stroke="rgb(0,70.89,0)"></circle><circle transform="matrix(1,0,0,1,0,0)" cx="294.5408508861815" cy="317.8453140644616" r="1" fill="none" stroke="rgb(0,156.825,0)"></circle><circle transform="matrix(1,0,0,1,0,0)" cx="301.5328313018184" cy="313.10286078981454" r="1" fill="none" stroke="rgb(0,246.33,0)"></circle><circle transform="matrix(1,0,0,1,0,0)" cx="309.7725521844226" cy="309.77255218442417" r="1" fill="none" stroke="rgb(0,208.59,0)"></circle><circle transform="matrix(1,0,0,1,0,0)" cx="316.4297597246263" cy="305.075618831088" r="1" fill="none" stroke="rgb(0,81.345,0)"></circle><circle transform="matrix(1,0,0,1,0,0)" cx="322.8448317663067" cy="300.2116905725892" r="1" fill="none" stroke="rgb(0,67.83,0)"></circle><circle transform="matrix(1,0,0,1,0,0)" cx="329.2775824473173" cy="295.42766183240656" r="1" fill="none" stroke="rgb(0,61.455,0)"></circle><circle transform="matrix(1,0,0,1,0,0)" cx="335.62354324355846" cy="290.5742020545953" r="1" fill="none" stroke="rgb(0,60.69,0)"></circle><circle transform="matrix(1,0,0,1,0,0)" cx="342.11430162275656" cy="285.92586376865165" r="1" fill="none" stroke="rgb(0,58.14,0)"></circle><circle transform="matrix(1,0,0,1,0,0)" cx="348.6420636931147" cy="281.3380757457476" r="1" fill="none" stroke="rgb(0,58.14,0)"></circle><circle transform="matrix(1,0,0,1,0,0)" cx="355.1178129650408" cy="276.65363542781824" r="1" fill="none" stroke="rgb(0,52.275,0)"></circle><circle transform="matrix(1,0,0,1,0,0)" cx="361.7471514083791" cy="272.16900572209624" r="1" fill="none" stroke="rgb(0,53.805,0)"></circle><circle transform="matrix(1,0,0,1,0,0)" cx="368.43719222227685" cy="267.731482985605" r="1" fill="none" stroke="rgb(0,54.06,0)"></circle><circle transform="matrix(1,0,0,1,0,0)" cx="375.1965916866642" cy="263.337970068746" r="1" fill="none" stroke="rgb(0,34.68,0)"></circle><circle transform="matrix(1,0,0,1,0,0)" cx="382.2642519860391" cy="259.4747299119106" r="1" fill="none" stroke="rgb(0,17.34,0)"></circle><circle transform="matrix(1,0,0,1,0,0)" cx="388.7452132287204" cy="254.17878435320515" r="1" fill="none" stroke="rgb(0,197.115,0)"></circle><circle transform="matrix(1,0,0,1,0,0)" cx="395.58454142723053" cy="249.39777625300653" r="1" fill="none" stroke="rgb(0,175.95,0)"></circle><circle transform="matrix(1,0,0,1,0,0)" cx="402.56259303646834" cy="244.64460953406538" r="1" fill="none" stroke="rgb(0,179.52,0)"></circle><circle transform="matrix(1,0,0,1,0,0)" cx="409.63410328838734" cy="239.7504457883029" r="1" fill="none" stroke="rgb(0,177.99,0)"></circle><circle transform="matrix(1,0,0,1,0,0)" cx="416.1728381675806" cy="232.4664105940695" r="1" fill="none" stroke="rgb(0,188.955,0)"></circle><circle transform="matrix(1,0,0,1,0,0)" cx="422.9108050747974" cy="224.65219742517542" r="1" fill="none" stroke="rgb(0,194.565,0)"></circle><circle transform="matrix(1,0,0,1,0,0)" cx="430.1453778158492" cy="217.36257324760004" r="1" fill="none" stroke="rgb(0,177.99,0)"></circle><circle transform="matrix(1,0,0,1,0,0)" cx="437.7377391289385" cy="210.09257713631843" r="1" fill="none" stroke="rgb(0,170.595,0)"></circle><circle transform="matrix(1,0,0,1,0,0)" cx="445.6429189757307" cy="202.5011603759225" r="1" fill="none" stroke="rgb(0,185.895,0)"></circle><circle transform="matrix(1,0,0,1,0,0)" cx="454.0406697391504" cy="195.67044983218068" r="1" fill="none" stroke="rgb(0,182.325,0)"></circle><circle transform="matrix(1,0,0,1,0,0)" cx="463.0432830308635" cy="191.41726882580008" r="1" fill="none" stroke="rgb(0,161.925,0)"></circle><circle transform="matrix(1,0,0,1,0,0)" cx="472.3556354267575" cy="188.69849326770532" r="1" fill="none" stroke="rgb(0,174.42,0)"></circle><circle transform="matrix(1,0,0,1,0,0)" cx="481.9861955042832" cy="191.84788385839028" r="1" fill="none" stroke="rgb(0,255,0)"></circle><circle transform="matrix(1,0,0,1,0,0)" cx="491.3999999999983" cy="197.45999999999998" r="1" fill="none" stroke="rgb(0,255,0)"></circle><circle transform="matrix(1,0,0,1,0,0)" cx="500.43499074123116" cy="203.90193297640093" r="1" fill="none" stroke="rgb(0,65.79,0)"></circle><circle transform="matrix(1,0,0,1,0,0)" cx="509.1106939384365" cy="209.89658097952162" r="1" fill="none" stroke="rgb(0,67.83,0)"></circle><circle transform="matrix(1,0,0,1,0,0)" cx="517.4698849554933" cy="215.60942456565465" r="1" fill="none" stroke="rgb(0,68.85,0)"></circle><circle transform="matrix(1,0,0,1,0,0)" cx="525.6686127211506" cy="220.13599836659523" r="1" fill="none" stroke="rgb(0,55.845,0)"></circle><circle transform="matrix(1,0,0,1,0,0)" cx="534.0315204127622" cy="222.23517342101286" r="1" fill="none" stroke="rgb(0,39.015,0)"></circle><circle transform="matrix(1,0,0,1,0,0)" cx="542.2290553945222" cy="224.94476036733562" r="1" fill="none" stroke="rgb(0,39.015,0)"></circle><circle transform="matrix(1,0,0,1,0,0)" cx="550.2201436101623" cy="228.25380431083585" r="1" fill="none" stroke="rgb(0,36.21,0)"></circle><circle transform="matrix(1,0,0,1,0,0)" cx="558.0090993782333" cy="231.9746861233071" r="1" fill="none" stroke="rgb(0,41.82,0)"></circle><circle transform="matrix(1,0,0,1,0,0)" cx="565.5223570525011" cy="236.26917358934935" r="1" fill="none" stroke="rgb(0,46.41,0)"></circle><circle transform="matrix(1,0,0,1,0,0)" cx="572.8321583576848" cy="240.7775868259007" r="1" fill="none" stroke="rgb(0,48.705,0)"></circle><circle transform="matrix(1,0,0,1,0,0)" cx="579.8715700096639" cy="245.6607607645349" r="1" fill="none" stroke="rgb(0,48.96,0)"></circle><circle transform="matrix(1,0,0,1,0,0)" cx="586.5528343779343" cy="251.07137392760424" r="1" fill="none" stroke="rgb(0,55.335,0)"></circle><circle transform="matrix(1,0,0,1,0,0)" cx="592.9824874665629" cy="256.6567218425508" r="1" fill="none" stroke="rgb(0,62.475,0)"></circle><circle transform="matrix(1,0,0,1,0,0)" cx="599.3095036542509" cy="262.08063182301146" r="1" fill="none" stroke="rgb(0,49.98,0)"></circle><circle transform="matrix(1,0,0,1,0,0)" cx="605.397014484599" cy="267.66826177630026" r="1" fill="none" stroke="rgb(0,49.47,0)"></circle><circle transform="matrix(1,0,0,1,0,0)" cx="611.1543283082033" cy="273.56768547469574" r="1" fill="none" stroke="rgb(0,61.965,0)"></circle><circle transform="matrix(1,0,0,1,0,0)" cx="616.7463582143703" cy="279.4508832705483" r="1" fill="none" stroke="rgb(0,66.045,0)"></circle><circle transform="matrix(1,0,0,1,0,0)" cx="622.0881552953763" cy="285.4684189700579" r="1" fill="none" stroke="rgb(0,68.34,0)"></circle><circle transform="matrix(1,0,0,1,0,0)" cx="627.2780357619731" cy="291.46154197486675" r="1" fill="none" stroke="rgb(0,68.34,0)"></circle><circle transform="matrix(1,0,0,1,0,0)" cx="632.0099880534044" cy="297.8669546056244" r="1" fill="none" stroke="rgb(0,69.615,0)"></circle><circle transform="matrix(1,0,0,1,0,0)" cx="636.4750995996586" cy="304.3703085706734" r="1" fill="none" stroke="rgb(0,69.36,0)"></circle><circle transform="matrix(1,0,0,1,0,0)" cx="640.5572136011925" cy="311.0999011904646" r="1" fill="none" stroke="rgb(0,74.46,0)"></circle><circle transform="matrix(1,0,0,1,0,0)" cx="644.1233621778433" cy="318.16934957954095" r="1" fill="none" stroke="rgb(0,112.71,0)"></circle><circle transform="matrix(1,0,0,1,0,0)" cx="647.6410314571631" cy="325.0202004773363" r="1" fill="none" stroke="rgb(0,99.195,0)"></circle><circle transform="matrix(1,0,0,1,0,0)" cx="651.1354218700403" cy="331.66457812995816" r="1" fill="none" stroke="rgb(0,97.41,0)"></circle><circle transform="matrix(1,0,0,1,0,0)" cx="655.1555124639451" cy="337.62333812417864" r="1" fill="none" stroke="rgb(0,77.52,0)"></circle><circle transform="matrix(1,0,0,1,0,0)" cx="659.4998907041853" cy="343.20001098096884" r="1" fill="none" stroke="rgb(0,61.455,0)"></circle><circle transform="matrix(1,0,0,1,0,0)" cx="663.6559405549548" cy="348.8974928517821" r="1" fill="none" stroke="rgb(0,65.535,0)"></circle><circle transform="matrix(1,0,0,1,0,0)" cx="667.4781429577982" cy="354.8197921639699" r="1" fill="none" stroke="rgb(0,82.11,0)"></circle><circle transform="matrix(1,0,0,1,0,0)" cx="671.9725931444876" cy="360.2063316883192" r="1" fill="none" stroke="rgb(0,57.63,0)"></circle><circle transform="matrix(1,0,0,1,0,0)" cx="676.3021331848205" cy="365.7406400473768" r="1" fill="none" stroke="rgb(0,55.335,0)"></circle><circle transform="matrix(1,0,0,1,0,0)" cx="680.613888105001" cy="371.321215245206" r="1" fill="none" stroke="rgb(0,54.825,0)"></circle><circle transform="matrix(1,0,0,1,0,0)" cx="684.9120225110261" cy="376.95730891100067" r="1" fill="none" stroke="rgb(0,56.1,0)"></circle><circle transform="matrix(1,0,0,1,0,0)" cx="689.5154142243161" cy="382.4851293590834" r="1" fill="none" stroke="rgb(0,52.53,0)"></circle><circle transform="matrix(1,0,0,1,0,0)" cx="694.2821855576909" cy="388.02636320930435" r="1" fill="none" stroke="rgb(0,52.53,0)"></circle><circle transform="matrix(1,0,0,1,0,0)" cx="698.7320708020633" cy="393.83693313077833" r="1" fill="none" stroke="rgb(0,52.275,0)"></circle><circle transform="matrix(1,0,0,1,0,0)" cx="703.3462532554582" cy="399.6826661368028" r="1" fill="none" stroke="rgb(0,51,0)"></circle><circle transform="matrix(1,0,0,1,0,0)" cx="708.2982586280109" cy="405.5239043497174" r="1" fill="none" stroke="rgb(0,47.94,0)"></circle><circle transform="matrix(1,0,0,1,0,0)" cx="713.0903267809942" cy="411.5865712318035" r="1" fill="none" stroke="rgb(0,48.45,0)"></circle><circle transform="matrix(1,0,0,1,0,0)" cx="717.8845987905275" cy="417.81069295954904" r="1" fill="none" stroke="rgb(0,50.235,0)"></circle><circle transform="matrix(1,0,0,1,0,0)" cx="723.0228369852783" cy="424.1073452233369" r="1" fill="none" stroke="rgb(0,42.84,0)"></circle><circle transform="matrix(1,0,0,1,0,0)" cx="727.9861229372791" cy="430.65500816111154" r="1" fill="none" stroke="rgb(0,46.92,0)"></circle><circle transform="matrix(1,0,0,1,0,0)" cx="733.1150635969886" cy="437.37028197090325" r="1" fill="none" stroke="rgb(0,37.485,0)"></circle><circle transform="matrix(1,0,0,1,0,0)" cx="738.582763773367" cy="444.24736599764714" r="1" fill="none" stroke="rgb(0,36.975,0)"></circle><circle transform="matrix(1,0,0,1,0,0)" cx="740.1196779286673" cy="452.00667301356793" r="1" fill="none" stroke="rgb(0,33.66,0)"></circle><circle transform="matrix(1,0,0,1,0,0)" cx="738.7341950376991" cy="460.15442487241785" r="1" fill="none" stroke="rgb(0,54.06,0)"></circle><circle transform="matrix(1,0,0,1,0,0)" cx="736.9055804711194" cy="468.1928899356533" r="1" fill="none" stroke="rgb(0,64.515,0)"></circle><circle transform="matrix(1,0,0,1,0,0)" cx="735.7169431192408" cy="476.028880819223" r="1" fill="none" stroke="rgb(0,55.59,0)"></circle><circle transform="matrix(1,0,0,1,0,0)" cx="736.7988507009943" cy="483.68803043113684" r="1" fill="none" stroke="rgb(0,32.13,0)"></circle><circle transform="matrix(1,0,0,1,0,0)" cx="747.54" cy="491.39999999999884" r="1" fill="none" stroke="rgb(0,20.145,0)"></circle><circle transform="matrix(1,0,0,1,0,0)" cx="757.8484588622966" cy="499.77348015504623" r="1" fill="none" stroke="rgb(0,20.145,0)"></circle><circle transform="matrix(1,0,0,1,0,0)" cx="767.1547850647315" cy="508.74902054594804" r="1" fill="none" stroke="rgb(0,16.065,0)"></circle><circle transform="matrix(1,0,0,1,0,0)" cx="776.3298342694015" cy="518.3337992717575" r="1" fill="none" stroke="rgb(0,148.155,0)"></circle><circle transform="matrix(1,0,0,1,0,0)" cx="784.9865824129804" cy="528.4886104763476" r="1" fill="none" stroke="rgb(0,137.7,0)"></circle><circle transform="matrix(1,0,0,1,0,0)" cx="793.0992805181909" cy="539.1844716911876" r="1" fill="none" stroke="rgb(0,114.24,0)"></circle><circle transform="matrix(1,0,0,1,0,0)" cx="801.8813542103242" cy="550.6274859142544" r="1" fill="none" stroke="rgb(0,126.48,0)"></circle><circle transform="matrix(1,0,0,1,0,0)" cx="809.3536810396442" cy="562.4710680469922" r="1" fill="none" stroke="rgb(0,132.855,0)"></circle><circle transform="matrix(1,0,0,1,0,0)" cx="814.1125376248376" cy="574.2584966055849" r="1" fill="none" stroke="rgb(0,142.8,0)"></circle><circle transform="matrix(1,0,0,1,0,0)" cx="817.400500413609" cy="586.1119006781961" r="1" fill="none" stroke="rgb(0,161.67,0)"></circle><circle transform="matrix(1,0,0,1,0,0)" cx="818.8868008210736" cy="597.806911843068" r="1" fill="none" stroke="rgb(0,164.22,0)"></circle><circle transform="matrix(1,0,0,1,0,0)" cx="818.9394132883455" cy="609.3214447957894" r="1" fill="none" stroke="rgb(0,172.38,0)"></circle><circle transform="matrix(1,0,0,1,0,0)" cx="817.7515465467768" cy="620.6117179923205" r="1" fill="none" stroke="rgb(0,180.795,0)"></circle><circle transform="matrix(1,0,0,1,0,0)" cx="815.6794194391784" cy="631.7282356768919" r="1" fill="none" stroke="rgb(0,192.78,0)"></circle><circle transform="matrix(1,0,0,1,0,0)" cx="812.5774105433389" cy="642.5346173339367" r="1" fill="none" stroke="rgb(0,175.44,0)"></circle><circle transform="matrix(1,0,0,1,0,0)" cx="808.7943440463811" cy="653.1204958172199" r="1" fill="none" stroke="rgb(0,181.305,0)"></circle><circle transform="matrix(1,0,0,1,0,0)" cx="804.3466415772654" cy="663.4438720952031" r="1" fill="none" stroke="rgb(0,212.67,0)"></circle><circle transform="matrix(1,0,0,1,0,0)" cx="799.2529933782313" cy="673.4637527572763" r="1" fill="none" stroke="rgb(0,220.32,0)"></circle><circle transform="matrix(1,0,0,1,0,0)" cx="793.5343048616419" cy="683.1402603152828" r="1" fill="none" stroke="rgb(0,218.535,0)"></circle><circle transform="matrix(1,0,0,1,0,0)" cx="787.2136381950406" cy="692.4347409225917" r="1" fill="none" stroke="rgb(0,255,0)"></circle><circle transform="matrix(1,0,0,1,0,0)" cx="776.5299494975073" cy="698.559034317958" r="1" fill="none" stroke="rgb(0,255,0)"></circle><circle transform="matrix(1,0,0,1,0,0)" cx="765.3309396904052" cy="703.8826173604127" r="1" fill="none" stroke="rgb(0,255,0)"></circle><circle transform="matrix(1,0,0,1,0,0)" cx="754.3607594945222" cy="708.9400592214316" r="1" fill="none" stroke="rgb(0,255,0)"></circle><circle transform="matrix(1,0,0,1,0,0)" cx="743.7523660450802" cy="713.8785377321819" r="1" fill="none" stroke="rgb(0,255,0)"></circle><circle transform="matrix(1,0,0,1,0,0)" cx="733.0968381078442" cy="718.3684384417149" r="1" fill="none" stroke="rgb(0,255,0)"></circle><circle transform="matrix(1,0,0,1,0,0)" cx="721.9026685311917" cy="721.9026685311898" r="1" fill="none" stroke="rgb(0,84.15,0)"></circle><circle transform="matrix(1,0,0,1,0,0)" cx="711.4682036139557" cy="725.7488343434345" r="1" fill="none" stroke="rgb(0,54.57,0)"></circle><circle transform="matrix(1,0,0,1,0,0)" cx="701.4987796133252" cy="729.7102868215961" r="1" fill="none" stroke="rgb(0,44.625,0)"></circle><circle transform="matrix(1,0,0,1,0,0)" cx="691.7296114982191" cy="733.5569019395742" r="1" fill="none" stroke="rgb(0,41.565,0)"></circle><circle transform="matrix(1,0,0,1,0,0)" cx="682.1489332378803" cy="737.3120429515616" r="1" fill="none" stroke="rgb(0,39.015,0)"></circle><circle transform="matrix(1,0,0,1,0,0)" cx="672.8493073826874" cy="741.1435461635456" r="1" fill="none" stroke="rgb(0,37.485,0)"></circle><circle transform="matrix(1,0,0,1,0,0)" cx="663.8022136548065" cy="745.0821537414929" r="1" fill="none" stroke="rgb(0,35.955,0)"></circle><circle transform="matrix(1,0,0,1,0,0)" cx="654.8807551480928" cy="749.0044500706641" r="1" fill="none" stroke="rgb(0,34.17,0)"></circle><circle transform="matrix(1,0,0,1,0,0)" cx="646.1587712164289" cy="753.0827910497383" r="1" fill="none" stroke="rgb(0,32.64,0)"></circle><circle transform="matrix(1,0,0,1,0,0)" cx="637.429173693713" cy="757.0260808548953" r="1" fill="none" stroke="rgb(0,31.365,0)"></circle><circle transform="matrix(1,0,0,1,0,0)" cx="628.768445411193" cy="761.0007540889158" r="1" fill="none" stroke="rgb(0,29.835,0)"></circle><circle transform="matrix(1,0,0,1,0,0)" cx="620.155657769279" cy="765.0197006657238" r="1" fill="none" stroke="rgb(0,28.05,0)"></circle><circle transform="matrix(1,0,0,1,0,0)" cx="611.4975221279586" cy="768.9289988068354" r="1" fill="none" stroke="rgb(0,26.52,0)"></circle><circle transform="matrix(1,0,0,1,0,0)" cx="602.9859144097805" cy="773.2338484024463" r="1" fill="none" stroke="rgb(0,25.245,0)"></circle><circle transform="matrix(1,0,0,1,0,0)" cx="595.2367220719926" cy="779.8175909152278" r="1" fill="none" stroke="rgb(0,22.185,0)"></circle><circle transform="matrix(1,0,0,1,0,0)" cx="588.9072224050719" cy="791.4963731517723" r="1" fill="none" stroke="rgb(0,19.635,0)"></circle><circle transform="matrix(1,0,0,1,0,0)" cx="581.9437735539725" cy="803.0537127495948" r="1" fill="none" stroke="rgb(0,18.87,0)"></circle><circle transform="matrix(1,0,0,1,0,0)" cx="574.3032607852771" cy="814.2868825938401" r="1" fill="none" stroke="rgb(0,16.83,0)"></circle><circle transform="matrix(1,0,0,1,0,0)" cx="566.1227859079728" cy="825.6905276344983" r="1" fill="none" stroke="rgb(0,146.625,0)"></circle><circle transform="matrix(1,0,0,1,0,0)" cx="557.3057559660922" cy="836.8900718262942" r="1" fill="none" stroke="rgb(0,145.095,0)"></circle><circle transform="matrix(1,0,0,1,0,0)" cx="547.8571984330205" cy="847.856722120785" r="1" fill="none" stroke="rgb(0,139.74,0)"></circle><circle transform="matrix(1,0,0,1,0,0)" cx="537.625403203188" cy="857.3117441388056" r="1" fill="none" stroke="rgb(0,110.925,0)"></circle><circle transform="matrix(1,0,0,1,0,0)" cx="526.5663945208636" cy="863.4215949328789" r="1" fill="none" stroke="rgb(0,82.11,0)"></circle><circle transform="matrix(1,0,0,1,0,0)" cx="515.0557003274747" cy="867.396589668067" r="1" fill="none" stroke="rgb(0,98.94,0)"></circle><circle transform="matrix(1,0,0,1,0,0)" cx="503.2845748048018" cy="869.5733021799781" r="1" fill="none" stroke="rgb(0,104.04,0)"></circle><circle transform="matrix(1,0,0,1,0,0)" cx="491.40000000000117" cy="870.1199999999999" r="1" fill="none" stroke="rgb(0,115.005,0)"></circle><circle transform="matrix(1,0,0,1,0,0)" cx="479.5210791318346" cy="869.3933909991124" r="1" fill="none" stroke="rgb(0,127.5,0)"></circle><circle transform="matrix(1,0,0,1,0,0)" cx="467.7329973790123" cy="867.5762344791841" r="1" fill="none" stroke="rgb(0,143.82,0)"></circle><circle transform="matrix(1,0,0,1,0,0)" cx="456.1319685007547" cy="864.4968018546504" r="1" fill="none" stroke="rgb(0,144.585,0)"></circle><circle transform="matrix(1,0,0,1,0,0)" cx="444.76851712006606" cy="860.5261957710647" r="1" fill="none" stroke="rgb(0,157.845,0)"></circle><circle transform="matrix(1,0,0,1,0,0)" cx="433.6756824001559" cy="855.8569976796059" r="1" fill="none" stroke="rgb(0,170.595,0)"></circle><circle transform="matrix(1,0,0,1,0,0)" cx="422.829681740501" cy="850.8581965316565" r="1" fill="none" stroke="rgb(0,192.78,0)"></circle><circle transform="matrix(1,0,0,1,0,0)" cx="412.59357261308605" cy="843.9596894179921" r="1" fill="none" stroke="rgb(0,117.81,0)"></circle><circle transform="matrix(1,0,0,1,0,0)" cx="402.54310331599834" cy="837.4747634712601" r="1" fill="none" stroke="rgb(0,171.105,0)"></circle><circle transform="matrix(1,0,0,1,0,0)" cx="392.6706273948385" cy="831.2287294873569" r="1" fill="none" stroke="rgb(0,218.025,0)"></circle><circle transform="matrix(1,0,0,1,0,0)" cx="383.10190415135685" cy="824.7072667007998" r="1" fill="none" stroke="rgb(0,154.02,0)"></circle><circle transform="matrix(1,0,0,1,0,0)" cx="373.17369107598927" cy="819.786205980404" r="1" fill="none" stroke="rgb(0,117.81,0)"></circle><circle transform="matrix(1,0,0,1,0,0)" cx="362.5858565245784" cy="816.7473879420172" r="1" fill="none" stroke="rgb(0,90.27,0)"></circle><circle transform="matrix(1,0,0,1,0,0)" cx="350.28541149965054" cy="817.4965735980325" r="1" fill="none" stroke="rgb(0,76.5,0)"></circle><circle transform="matrix(1,0,0,1,0,0)" cx="335.59032604467814" cy="822.5124115794156" r="1" fill="none" stroke="rgb(0,59.67,0)"></circle><circle transform="matrix(1,0,0,1,0,0)" cx="317.4217606898118" cy="832.8515201994668" r="1" fill="none" stroke="rgb(0,52.785,0)"></circle><circle transform="matrix(1,0,0,1,0,0)" cx="239.49100381221442" cy="949.620762994937" r="1" fill="none" stroke="rgb(0,116.28,0)"></circle><circle transform="matrix(1,0,0,1,0,0)" cx="225.1306162492972" cy="941.6369394852236" r="1" fill="none" stroke="rgb(0,112.965,0)"></circle><circle transform="matrix(1,0,0,1,0,0)" cx="211.31261772858028" cy="932.7470932184142" r="1" fill="none" stroke="rgb(0,124.95,0)"></circle><circle transform="matrix(1,0,0,1,0,0)" cx="197.99247676118932" cy="923.1360597713223" r="1" fill="none" stroke="rgb(0,115.515,0)"></circle><circle transform="matrix(1,0,0,1,0,0)" cx="185.10510503039376" cy="912.9787557687862" r="1" fill="none" stroke="rgb(0,129.54,0)"></circle><circle transform="matrix(1,0,0,1,0,0)" cx="172.6760739593807" cy="902.2964095356077" r="1" fill="none" stroke="rgb(0,124.95,0)"></circle><circle transform="matrix(1,0,0,1,0,0)" cx="160.50045844166175" cy="891.388834589769" r="1" fill="none" stroke="rgb(0,150.195,0)"></circle><circle transform="matrix(1,0,0,1,0,0)" cx="148.33785674470397" cy="880.5276184814986" r="1" fill="none" stroke="rgb(0,173.4,0)"></circle><circle transform="matrix(1,0,0,1,0,0)" cx="138.13262051444258" cy="867.5915498670952" r="1" fill="none" stroke="rgb(0,208.335,0)"></circle><circle transform="matrix(1,0,0,1,0,0)" cx="131.07252644296074" cy="851.7274735570425" r="1" fill="none" stroke="rgb(0,211.905,0)"></circle><circle transform="matrix(1,0,0,1,0,0)" cx="123.47495436786676" cy="836.9046153043294" r="1" fill="none" stroke="rgb(0,197.37,0)"></circle><circle transform="matrix(1,0,0,1,0,0)" cx="116.04442075691969" cy="822.3204574079573" r="1" fill="none" stroke="rgb(0,176.46,0)"></circle><circle transform="matrix(1,0,0,1,0,0)" cx="115.5436401739716" cy="802.3354221994127" r="1" fill="none" stroke="rgb(0,62.73,0)"></circle><circle transform="matrix(1,0,0,1,0,0)" cx="263.6931285335744" cy="668.0275547217159" r="1" fill="none" stroke="rgb(0,125.715,0)"></circle><circle transform="matrix(1,0,0,1,0,0)" cx="257.52936726609107" cy="661.3169607327094" r="1" fill="none" stroke="rgb(0,255,0)"></circle><circle transform="matrix(1,0,0,1,0,0)" cx="251.56317507186347" cy="654.3929379095621" r="1" fill="none" stroke="rgb(0,255,0)"></circle><circle transform="matrix(1,0,0,1,0,0)" cx="245.64991400338437" cy="647.3577469465881" r="1" fill="none" stroke="rgb(0,255,0)"></circle><circle transform="matrix(1,0,0,1,0,0)" cx="239.63295710134736" cy="640.2946141069851" r="1" fill="none" stroke="rgb(0,255,0)"></circle><circle transform="matrix(1,0,0,1,0,0)" cx="233.8184144679076" cy="633.0066749654598" r="1" fill="none" stroke="rgb(0,255,0)"></circle><circle transform="matrix(1,0,0,1,0,0)" cx="227.733349362179" cy="625.7448686829283" r="1" fill="none" stroke="rgb(0,255,0)"></circle><circle transform="matrix(1,0,0,1,0,0)" cx="221.6891522009297" cy="618.3162912297186" r="1" fill="none" stroke="rgb(0,255,0)"></circle><circle transform="matrix(1,0,0,1,0,0)" cx="215.68815535201912" cy="610.7111693045026" r="1" fill="none" stroke="rgb(0,255,0)"></circle><circle transform="matrix(1,0,0,1,0,0)" cx="209.56615159755398" cy="602.9859144097815" r="1" fill="none" stroke="rgb(0,255,0)"></circle><circle transform="matrix(1,0,0,1,0,0)" cx="204.84535300730175" cy="594.5660209899079" r="1" fill="none" stroke="rgb(0,240.975,0)"></circle><circle transform="matrix(1,0,0,1,0,0)" cx="206.36836206634314" cy="584.0123932141738" r="1" fill="none" stroke="rgb(0,62.985,0)"></circle><circle transform="matrix(1,0,0,1,0,0)" cx="207.0570396710578" cy="574.0092664982178" r="1" fill="none" stroke="rgb(0,29.325,0)"></circle><circle transform="matrix(1,0,0,1,0,0)" cx="207.21770052486022" cy="564.3656128941706" r="1" fill="none" stroke="rgb(0,32.895,0)"></circle><circle transform="matrix(1,0,0,1,0,0)" cx="207.52533228725764" cy="554.8535060574285" r="1" fill="none" stroke="rgb(0,36.465,0)"></circle><circle transform="matrix(1,0,0,1,0,0)" cx="213.62881123894186" cy="544.3876881385534" r="1" fill="none" stroke="rgb(0,96.9,0)"></circle><circle transform="matrix(1,0,0,1,0,0)" cx="217.96835978964242" cy="534.7073173017397" r="1" fill="none" stroke="rgb(0,255,0)"></circle><circle transform="matrix(1,0,0,1,0,0)" cx="222.45754676767166" cy="525.3753329546138" r="1" fill="none" stroke="rgb(0,255,0)"></circle><circle transform="matrix(1,0,0,1,0,0)" cx="227.43670070513957" cy="516.3518781932731" r="1" fill="none" stroke="rgb(0,59.415,0)"></circle><circle transform="matrix(1,0,0,1,0,0)" cx="230.37608944687003" cy="507.82223247769883" r="1" fill="none" stroke="rgb(0,32.64,0)"></circle><circle transform="matrix(1,0,0,1,0,0)" cx="231.24843246800748" cy="499.5755923728575" r="1" fill="none" stroke="rgb(0,11.73,0)"></circle></svg>