<svg style="overflow: hidden; position: relative;" xmlns="http://www.w3.org/2000/svg" xmlns:xlink="http://www.w3.org/1999/xlink" width="1000" version="1.1" height="1000"><circle transform="matrix(1,0,0,1,0,0)" cx="491.4" cy="491.4" r="5" fill="#f00" stroke="#000"></circle><path transform="matrix(1,0,0,1,0,0)" fill="none" stroke="#000000" d="M491.4,491.4L461.4,491.4" stroke-width="2" arrow-end="classic-wide-long"></path><rect transform="matrix(1,0,0,1,0,0)" x="0" y="0" width="1000" height="1000" rx="0" ry="0" fill="none" stroke="#000" stroke-width="7"></rect><path transform="matrix(1,0,0,1,0,0)" fill="none" stroke="#000" d="M0,0L1000,0"></path><path transform="matrix(1,0,0,1,0,0)" fill="none" stroke="#000" d="M0,0L0,1000" stroke-width="0.5"></path><path transform="matrix(1,0,0,1,0,0)" fill="none" stroke="#000" d="M0,37.8L1000,37.8"></path><path transform="matrix(1,0,0,1,0,0)" fill="none" stroke="#000" d="M37.8,0L37.8,1000" stroke-width="0.5"></path><path transform="matrix(1,0,0,1,0,0)" fill="none" stroke="#000" d="M0,75.6L1000,75.6"></path><path transform="matrix(1,0,0,1,0,0)" fill="none" stroke="#000" d="M75.6,0L75.6,1000" stroke-width="0.5"></path><path transform="matrix(1,0,0,1,0,0)" fill="none" stroke="#000" d="M0,113.39999999999999L1000,113.39999999999999"></path><path transform="matrix(1,0,0,1,0,0)" fill="none" stroke="#000" d="M113.39999999999999,0L113.39999999999999,1000" stroke-width="0.5"></path><path transform="matrix(1,0,0,1,0,0)" fill="none" stroke="#000" d="M0,151.2L1000,151.2"></path><path transform="matrix(1,0,0,1,0,0)" fill="none" stroke="#000" d="M151.2,0L151.2,1000" stroke-width="0.5"></path><path transform="matrix(1,0,0,1,0,0)" fill="none" stroke="#000" d="M0,189L1000,189"></path><path transform="matrix(1,0,0,1,0,0)" fill="none" stroke="#000" d="M189,0L189,1000" stroke-width="0.5"></path><path transform="matrix(1,0,0,1,0,0)" fill="none" stroke="#000" d="M0,226.79999999999998L1000,226.79999999999998"></path><path transform="matrix(1,0,0,1,0,0)" fill="none" stroke="#000" d="M226.79999999999998,0L226.79999999999998,1000" stroke-width="0.5"></path><path transform="matrix(1,0,0,1,0,0)" fill="none" stroke="#000" d="M0,264.59999999999997L1000,264.59999999999997"></path><path transform="matrix(1,0,0,1,0,0)" fill="none" stroke="#000" d="M264.59999999999997,0L264.59999999999997,1000" stroke-width="0.5"></path><path transform="matrix(1,0,0,1,0,0)" fill="none" stroke="#000" d="M0,302.4L1000,302.4"></path><path transform="matrix(1,0,0,1,0,0)" fill="none" stroke="#000" d="M302.4,0L302.4,1000" stroke-width="0.5"></path><path transform="matrix(1,0,0,1,0,0)" fill="none" stroke="#000" d="M0,340.2L1000,340.2"></path><path transform="matrix(1,0,0,1,0,0)" fill="none" stroke="#000" d="M340.2,0L340.2,1000" stroke-width="0.5"></path><path transform="matrix(1,0,0,1,0,0)" fill="none" stroke="#000" d="M0,378L1000,378"></path><path transform="matrix(1,0,0,1,0,0)" fill="none" stroke="#000" d="M378,0L378,1000" stroke-width="0.5"></path><path transform="matrix(1,0,0,1,0,0)" fill="none" stroke="#000" d="M0,415.79999999999995L1000,415.79999999999995"></path><path transform="matrix(1,0,0,1,0,0)" fill="none" stroke="#000" d="M415.79999999999995,0L415.79999999999995,1000" stroke-width="0.5"></path><path transform="matrix(1,0,0,1,0,0)" fill="none" stroke="#000" d="M0,453.59999999999997L1000,453.59999999999997"></path><path transform="matrix(1,0,0,1,0,0)" fill="none" stroke="#000" d="M453.59999999999997,0L453.59999999999997,1000" stroke-width="0.5"></path><path transform="matrix(1,0,0,1,0,0)" fill="none" stroke="#000" d="M0,491.4L1000,491.4"></path><path transform="matrix(1,0,0,1,0,0)" fill="none" stroke="#000" d="M491.4,0L491.4,1000" stroke-width="0.5"></path><path transform="matrix(1,0,0,1,0,0)" fill="none" stroke="#000" d="M0,529.1999999999999L1000,529.1999999999999"></path><path transform="matrix(1,0,0,1,0,0)" fill="none" stroke="#000" d="M529.1999999999999,0L529.1999999999999,1000" stroke-width="0.5"></path><path transform="matrix(1,0,0,1,0,0)" fill="none" stroke="#000" d="M0,567L1000,567"></path><path transform="matrix(1,0,0,1,0,0)" fill="none" stroke="#000" d="M567,0L567,1000" stroke-width="0.5"></path><path transform="matrix(1,0,0,1,0,0)" fill="none" stroke="#000" d="M0,604.8L1000,604.8"></path><path transform="matrix(1,0,0,1,0,0)" fill="none" stroke="#000" d="M604.8,0L604.8,1000" stroke-width="0.5"></path><path transform="matrix(1,0,0,1,0,0)" fill="none" stroke="#000" d="M0,642.5999999999999L1000,642.5999999999999"></path><path transform="matrix(1,0,0,1,0,0)" fill="none" stroke="#000" d="M642.5999999999999,0L642.5999999999999,1000" stroke-width="0.5"></path><path transform="matrix(1,0,0,1,0,0)" fill="none" stroke="#000" d="M0,680.4L1000,680.4"></path><path transform="matrix(1,0,0,1,0,0)" fill="none" stroke="#000" d="M680.4,0L680.4,1000" stroke-width="0.5"></path><path transform="matrix(1,0,0,1,0,0)" fill="none" stroke="#000" d="M0,718.1999999999999L1000,718.1999999999999"></path><path transform="matrix(1,0,0,1,0,0)" fill="none" stroke="#000" d="M718.1999999999999,0L718.1999999999999,1000" stroke-width="0.5"></path><path transform="matrix(1,0,0,1,0,0)" fill="none" stroke="#000" d="M0,756L1000,756"></path><path transform="matrix(1,0,0,1,0,0)" fill="none" stroke="#000" d="M756,0L756,1000" stroke-width="0.5"></path><path transform="matrix(1,0,0,1,0,0)" fill="none" stroke="#000" d="M0,793.8L1000,793.8"></path><path transform="matrix(1,0,0,1,0,0)" fill="none" stroke="#000" d="M793.8,0L793.8,1000" stroke-width="0.5"></path><path transform="matrix(1,0,0,1,0,0)" fill="none" stroke="#000" d="M0,831.5999999999999L1000,831.5999999999999"></path><path transform="matrix(1,0,0,1,0,0)" fill="none" stroke="#000" d="M831.5999999999999,0L831.5999999999999,1000" stroke-width="0.5"></path><path transform="matrix(1,0,0,1,0,0)" fill="none" stroke="#000" d="M0,869.4L1000,869.4"></path><path transform="matrix(1,0,0,1,0,0)" fill="none" stroke="#000" d="M869.4,0L869.4,1000" stroke-width="0.5"></path><path transform="matrix(1,0,0,1,0,0)" fill="none" stroke="#000" d="M0,907.1999999999999L1000,907.1999999999999"></path><path transform="matrix(1,0,0,1,0,0)" fill="none" stroke="#000" d="M907.1999999999999,0L907.1999999999999,1000" stroke-width="0.5"></path><path transform="matrix(1,0,0,1,0,0)" fill="none" stroke="#000" d="M0,944.9999999999999L1000,944.9999999999999"></path><path transform="matrix(1,0,0,1,0,0)" fill="none" stroke="#000" d="M944.9999999999999,0L944.9999999999999,1000" stroke-width="0.5"></path><path transform="matrix(1,0,0,1,0,0)" fill="none" stroke="#000" d="M0,982.8L1000,982.8"></path><path transform="matrix(1,0,0,1,0,0)" fill="none" stroke="#000" d="M982.8,0L982.8,1000" stroke-width="0.5"></path><circle transform="matrix(1,0,0,1,0,0)" cx="232.74" cy="491.3999999999999" r="1" fill="none" stroke="rgb(0,65.535,0)"></circle><circle transform="matrix(1,0,0,1,0,0)" cx="231.15211009767341" cy="487.3116994500793" r="1" fill="none" stroke="rgb(0,66.81,0)"></circle><circle transform="matrix(1,0,0,1,0,0)" cx="229.98905420194654" cy="483.1848300707063" r="1" fill="none" stroke="rgb(0,66.045,0)"></circle><circle transform="matrix(1,0,0,1,0,0)" cx="229.61094156996688" cy="479.05434139801685" r="1" fill="none" stroke="rgb(0,72.42,0)"></circle><circle transform="matrix(1,0,0,1,0,0)" cx="229.1185757690502" cy="474.8986514676965" r="1" fill="none" stroke="rgb(0,71.91,0)"></circle><circle transform="matrix(1,0,0,1,0,0)" cx="228.69234421464614" cy="470.7244590937984" r="1" fill="none" stroke="rgb(0,62.73,0)"></circle><circle transform="matrix(1,0,0,1,0,0)" cx="227.79510301239645" cy="466.48200079952386" r="1" fill="none" stroke="rgb(0,57.63,0)"></circle><circle transform="matrix(1,0,0,1,0,0)" cx="227.1455403826859" cy="462.22603605333484" r="1" fill="none" stroke="rgb(0,53.04,0)"></circle><circle transform="matrix(1,0,0,1,0,0)" cx="226.38632098487665" cy="457.9209866503032" r="1" fill="none" stroke="rgb(0,51.765,0)"></circle><circle transform="matrix(1,0,0,1,0,0)" cx="225.34104222525224" cy="453.5342029290942" r="1" fill="none" stroke="rgb(0,46.665,0)"></circle><circle transform="matrix(1,0,0,1,0,0)" cx="224.3685802366985" cy="449.10637803172335" r="1" fill="none" stroke="rgb(0,44.88,0)"></circle><circle transform="matrix(1,0,0,1,0,0)" cx="223.46996547242452" cy="444.6387233060064" r="1" fill="none" stroke="rgb(0,39.525,0)"></circle><circle transform="matrix(1,0,0,1,0,0)" cx="222.82301990576184" cy="440.1662009659714" r="1" fill="none" stroke="rgb(0,38.25,0)"></circle><circle transform="matrix(1,0,0,1,0,0)" cx="221.89829806067758" cy="435.5888805719809" r="1" fill="none" stroke="rgb(0,34.68,0)"></circle><circle transform="matrix(1,0,0,1,0,0)" cx="221.22720362487712" cy="431.00922505178147" r="1" fill="none" stroke="rgb(0,33.405,0)"></circle><circle transform="matrix(1,0,0,1,0,0)" cx="220.8088985517345" cy="426.43682414617894" r="1" fill="none" stroke="rgb(0,30.855,0)"></circle><circle transform="matrix(1,0,0,1,0,0)" cx="220.99095307610867" cy="421.97075730131616" r="1" fill="none" stroke="rgb(0,30.09,0)"></circle><circle transform="matrix(1,0,0,1,0,0)" cx="221.07313790301743" cy="417.44693901670496" r="1" fill="none" stroke="rgb(0,28.815,0)"></circle><circle transform="matrix(1,0,0,1,0,0)" cx="221.23097447164872" cy="412.90864222692363" r="1" fill="none" stroke="rgb(0,29.835,0)"></circle><circle transform="matrix(1,0,0,1,0,0)" cx="221.46493676065546" cy="408.35713134789313" r="1" fill="none" stroke="rgb(0,35.19,0)"></circle><circle transform="matrix(1,0,0,1,0,0)" cx="221.7754776303238" cy="403.79368209470283" r="1" fill="none" stroke="rgb(0,36.21,0)"></circle><circle transform="matrix(1,0,0,1,0,0)" cx="221.992733220268" cy="399.1612759938954" r="1" fill="none" stroke="rgb(0,43.605,0)"></circle><circle transform="matrix(1,0,0,1,0,0)" cx="223.98286784782988" cy="395.12390830788377" r="1" fill="none" stroke="rgb(0,76.245,0)"></circle><circle transform="matrix(1,0,0,1,0,0)" cx="223.67591837649178" cy="390.2354997103771" r="1" fill="none" stroke="rgb(0,165.495,0)"></circle><circle transform="matrix(1,0,0,1,0,0)" cx="222.11813415704438" cy="384.7837670514641" r="1" fill="none" stroke="rgb(0,198.9,0)"></circle><circle transform="matrix(1,0,0,1,0,0)" cx="221.33153505630042" cy="379.5339790510375" r="1" fill="none" stroke="rgb(0,241.485,0)"></circle><circle transform="matrix(1,0,0,1,0,0)" cx="221.13961782858098" cy="374.4478891658704" r="1" fill="none" stroke="rgb(0,246.075,0)"></circle><circle transform="matrix(1,0,0,1,0,0)" cx="221.2053846086556" cy="369.40245324793005" r="1" fill="none" stroke="rgb(0,231.54,0)"></circle><circle transform="matrix(1,0,0,1,0,0)" cx="221.85202107037247" cy="364.5603490427655" r="1" fill="none" stroke="rgb(0,229.755,0)"></circle><circle transform="matrix(1,0,0,1,0,0)" cx="223.39265029000154" cy="360.1045541482013" r="1" fill="none" stroke="rgb(0,254.49,0)"></circle><circle transform="matrix(1,0,0,1,0,0)" cx="225.3276317468692" cy="355.8293569677772" r="1" fill="none" stroke="rgb(0,255,0)"></circle><circle transform="matrix(1,0,0,1,0,0)" cx="227.96714098316187" cy="351.919480965209" r="1" fill="none" stroke="rgb(0,244.29,0)"></circle><circle transform="matrix(1,0,0,1,0,0)" cx="231.13691602697207" cy="348.3191587917912" r="1" fill="none" stroke="rgb(0,207.825,0)"></circle><circle transform="matrix(1,0,0,1,0,0)" cx="237.16892835422973" cy="346.38915692320364" r="1" fill="none" stroke="rgb(0,150.705,0)"></circle><circle transform="matrix(1,0,0,1,0,0)" cx="242.1118941391174" cy="343.9714251703782" r="1" fill="none" stroke="rgb(0,197.625,0)"></circle><circle transform="matrix(1,0,0,1,0,0)" cx="247.37438496185834" cy="341.86091077829616" r="1" fill="none" stroke="rgb(0,255,0)"></circle><circle transform="matrix(1,0,0,1,0,0)" cx="252.33699117335897" cy="339.6860012696476" r="1" fill="none" stroke="rgb(0,255,0)"></circle><circle transform="matrix(1,0,0,1,0,0)" cx="258.05930085320574" cy="338.1238096712823" r="1" fill="none" stroke="rgb(0,55.335,0)"></circle><circle transform="matrix(1,0,0,1,0,0)" cx="263.1753863346769" cy="336.2987127154838" r="1" fill="none" stroke="rgb(0,56.865,0)"></circle><circle transform="matrix(1,0,0,1,0,0)" cx="267.99603815992253" cy="334.3890658770631" r="1" fill="none" stroke="rgb(0,58.905,0)"></circle><circle transform="matrix(1,0,0,1,0,0)" cx="272.5285423418012" cy="332.3805778447951" r="1" fill="none" stroke="rgb(0,60.435,0)"></circle><circle transform="matrix(1,0,0,1,0,0)" cx="276.78063135523405" cy="330.25921992703996" r="1" fill="none" stroke="rgb(0,60.18,0)"></circle><circle transform="matrix(1,0,0,1,0,0)" cx="280.7604768008879" cy="328.0112376371903" r="1" fill="none" stroke="rgb(0,60.69,0)"></circle><circle transform="matrix(1,0,0,1,0,0)" cx="284.75763674495647" cy="325.8482494554328" r="1" fill="none" stroke="rgb(0,65.28,0)"></circle><circle transform="matrix(1,0,0,1,0,0)" cx="288.7704274148223" cy="323.7702391758903" r="1" fill="none" stroke="rgb(0,67.83,0)"></circle><circle transform="matrix(1,0,0,1,0,0)" cx="292.52342375696725" cy="321.54335743972456" r="1" fill="none" stroke="rgb(0,71.655,0)"></circle><circle transform="matrix(1,0,0,1,0,0)" cx="296.1610907965833" cy="319.27374769356067" r="1" fill="none" stroke="rgb(0,72.675,0)"></circle><circle transform="matrix(1,0,0,1,0,0)" cx="301.81775773508207" cy="318.8934325371756" r="1" fill="none" stroke="rgb(0,179.265,0)"></circle><circle transform="matrix(1,0,0,1,0,0)" cx="306.91261977218846" cy="318.15481843156823" r="1" fill="none" stroke="rgb(0,217.005,0)"></circle><circle transform="matrix(1,0,0,1,0,0)" cx="310.3029102300783" cy="315.90471095535094" r="1" fill="none" stroke="rgb(0,247.35,0)"></circle><circle transform="matrix(1,0,0,1,0,0)" cx="313.84548724405715" cy="313.84548724405863" r="1" fill="none" stroke="rgb(0,240.975,0)"></circle><circle transform="matrix(1,0,0,1,0,0)" cx="318.53526132646834" cy="313.0174276356247" r="1" fill="none" stroke="rgb(0,193.545,0)"></circle><circle transform="matrix(1,0,0,1,0,0)" cx="322.3442467198502" cy="311.373907772009" r="1" fill="none" stroke="rgb(0,145.605,0)"></circle><circle transform="matrix(1,0,0,1,0,0)" cx="325.31397191605726" cy="308.87383838117944" r="1" fill="none" stroke="rgb(0,81.855,0)"></circle><circle transform="matrix(1,0,0,1,0,0)" cx="328.20145787542833" cy="306.2875902365959" r="1" fill="none" stroke="rgb(0,82.62,0)"></circle><circle transform="matrix(1,0,0,1,0,0)" cx="330.8954093356775" cy="303.47326966160915" r="1" fill="none" stroke="rgb(0,66.3,0)"></circle><circle transform="matrix(1,0,0,1,0,0)" cx="333.7522988553531" cy="300.83666479669256" r="1" fill="none" stroke="rgb(0,63.495,0)"></circle><circle transform="matrix(1,0,0,1,0,0)" cx="336.3148115224907" cy="297.82204176380145" r="1" fill="none" stroke="rgb(0,61.455,0)"></circle><circle transform="matrix(1,0,0,1,0,0)" cx="339.04356460294207" cy="294.98326702365165" r="1" fill="none" stroke="rgb(0,61.455,0)"></circle><circle transform="matrix(1,0,0,1,0,0)" cx="341.71523782625604" cy="292.03861463916905" r="1" fill="none" stroke="rgb(0,60.435,0)"></circle><circle transform="matrix(1,0,0,1,0,0)" cx="344.4419312218348" cy="289.1295710663764" r="1" fill="none" stroke="rgb(0,59.16,0)"></circle><circle transform="matrix(1,0,0,1,0,0)" cx="347.11968215729945" cy="286.10987290371384" r="1" fill="none" stroke="rgb(0,58.65,0)"></circle><circle transform="matrix(1,0,0,1,0,0)" cx="350.05851380530214" cy="283.42231879291944" r="1" fill="none" stroke="rgb(0,59.67,0)"></circle><circle transform="matrix(1,0,0,1,0,0)" cx="353.0462498644696" cy="280.7765449351966" r="1" fill="none" stroke="rgb(0,57.63,0)"></circle><circle transform="matrix(1,0,0,1,0,0)" cx="356.08230119600296" cy="278.17342569372187" r="1" fill="none" stroke="rgb(0,56.355,0)"></circle><circle transform="matrix(1,0,0,1,0,0)" cx="358.9779637583887" cy="275.3068767460996" r="1" fill="none" stroke="rgb(0,53.04,0)"></circle><circle transform="matrix(1,0,0,1,0,0)" cx="362.1136612277194" cy="272.78873998153915" r="1" fill="none" stroke="rgb(0,53.805,0)"></circle><circle transform="matrix(1,0,0,1,0,0)" cx="365.11749458994666" cy="270.00319959999456" r="1" fill="none" stroke="rgb(0,54.57,0)"></circle><circle transform="matrix(1,0,0,1,0,0)" cx="368.26376089960024" cy="267.4160125807892" r="1" fill="none" stroke="rgb(0,54.825,0)"></circle><circle transform="matrix(1,0,0,1,0,0)" cx="371.2075479090277" cy="264.3959602554189" r="1" fill="none" stroke="rgb(0,55.08,0)"></circle><circle transform="matrix(1,0,0,1,0,0)" cx="374.46112707708613" cy="261.8945394995609" r="1" fill="none" stroke="rgb(0,54.825,0)"></circle><circle transform="matrix(1,0,0,1,0,0)" cx="377.76371242621565" cy="259.4394771810337" r="1" fill="none" stroke="rgb(0,30.345,0)"></circle><circle transform="matrix(1,0,0,1,0,0)" cx="381.11464789881336" cy="257.0316968702523" r="1" fill="none" stroke="rgb(0,23.97,0)"></circle><circle transform="matrix(1,0,0,1,0,0)" cx="384.66140566500536" cy="255.00021810629886" r="1" fill="none" stroke="rgb(0,20.145,0)"></circle><circle transform="matrix(1,0,0,1,0,0)" cx="388.17332026620625" cy="252.85721769222025" r="1" fill="none" stroke="rgb(0,22.695,0)"></circle><circle transform="matrix(1,0,0,1,0,0)" cx="391.65739018836143" cy="250.60003864625887" r="1" fill="none" stroke="rgb(0,22.95,0)"></circle><circle transform="matrix(1,0,0,1,0,0)" cx="395.1207044908477" cy="248.2262578807874" r="1" fill="none" stroke="rgb(0,22.695,0)"></circle><circle transform="matrix(1,0,0,1,0,0)" cx="398.57043652668983" cy="245.73368862346084" r="1" fill="none" stroke="rgb(0,20.145,0)"></circle><circle transform="matrix(1,0,0,1,0,0)" cx="402.1357832569591" cy="243.4590997651831" r="1" fill="none" stroke="rgb(0,19.89,0)"></circle><circle transform="matrix(1,0,0,1,0,0)" cx="405.63314600949224" cy="240.89551868964315" r="1" fill="none" stroke="rgb(0,21.42,0)"></circle><circle transform="matrix(1,0,0,1,0,0)" cx="409.1334957574997" cy="238.2097342319048" r="1" fill="none" stroke="rgb(0,21.42,0)"></circle><circle transform="matrix(1,0,0,1,0,0)" cx="412.53838477269426" cy="235.05631343108843" r="1" fill="none" stroke="rgb(0,21.165,0)"></circle><circle transform="matrix(1,0,0,1,0,0)" cx="415.92174617214505" cy="231.60214627696035" r="1" fill="none" stroke="rgb(0,21.93,0)"></circle><circle transform="matrix(1,0,0,1,0,0)" cx="418.91935063550943" cy="226.4553682980125" r="1" fill="none" stroke="rgb(0,22.695,0)"></circle><circle transform="matrix(1,0,0,1,0,0)" cx="422.10504984038283" cy="221.51398798311874" r="1" fill="none" stroke="rgb(0,23.715,0)"></circle><circle transform="matrix(1,0,0,1,0,0)" cx="425.386320008825" cy="216.4332339099455" r="1" fill="none" stroke="rgb(0,24.225,0)"></circle><circle transform="matrix(1,0,0,1,0,0)" cx="428.8888727454046" cy="211.74129269883298" r="1" fill="none" stroke="rgb(0,24.48,0)"></circle><circle transform="matrix(1,0,0,1,0,0)" cx="432.52273666618794" cy="207.09244916407698" r="1" fill="none" stroke="rgb(0,20.655,0)"></circle><circle transform="matrix(1,0,0,1,0,0)" cx="436.2874077540444" cy="202.4896738156785" r="1" fill="none" stroke="rgb(0,20.4,0)"></circle><circle transform="matrix(1,0,0,1,0,0)" cx="440.1513737887113" cy="197.75861205978538" r="1" fill="none" stroke="rgb(0,20.4,0)"></circle><circle transform="matrix(1,0,0,1,0,0)" cx="444.1786923829535" cy="193.2563975079521" r="1" fill="none" stroke="rgb(0,20.91,0)"></circle><circle transform="matrix(1,0,0,1,0,0)" cx="448.3349474705948" cy="188.80916925551168" r="1" fill="none" stroke="rgb(0,23.46,0)"></circle><circle transform="matrix(1,0,0,1,0,0)" cx="452.64195085257205" cy="184.5984497655112" r="1" fill="none" stroke="rgb(0,24.735,0)"></circle><circle transform="matrix(1,0,0,1,0,0)" cx="457.129974646264" cy="180.98599361134762" r="1" fill="none" stroke="rgb(0,20.91,0)"></circle><circle transform="matrix(1,0,0,1,0,0)" cx="461.78976029746" cy="178.15638345728712" r="1" fill="none" stroke="rgb(0,20.655,0)"></circle><circle transform="matrix(1,0,0,1,0,0)" cx="466.61477165957115" cy="176.4738142737051" r="1" fill="none" stroke="rgb(0,18.87,0)"></circle><circle transform="matrix(1,0,0,1,0,0)" cx="471.49666111959556" cy="175.04548762280666" r="1" fill="none" stroke="rgb(0,19.125,0)"></circle><circle transform="matrix(1,0,0,1,0,0)" cx="476.4851555763102" cy="175.13148778954115" r="1" fill="none" stroke="rgb(0,21.42,0)"></circle><circle transform="matrix(1,0,0,1,0,0)" cx="481.48864908048466" cy="176.01569994219716" r="1" fill="none" stroke="rgb(0,22.695,0)"></circle><circle transform="matrix(1,0,0,1,0,0)" cx="486.5539784629544" cy="182.91806134675812" r="1" fill="none" stroke="rgb(0,47.43,0)"></circle><circle transform="matrix(1,0,0,1,0,0)" cx="491.3999999999973" cy="190.26" r="1" fill="none" stroke="rgb(0,56.355,0)"></circle><circle transform="matrix(1,0,0,1,0,0)" cx="496.0226634848662" cy="197.1363070606472" r="1" fill="none" stroke="rgb(0,69.87,0)"></circle><circle transform="matrix(1,0,0,1,0,0)" cx="500.44629861449835" cy="203.54211061466924" r="1" fill="none" stroke="rgb(0,69.615,0)"></circle><circle transform="matrix(1,0,0,1,0,0)" cx="504.7038038094147" cy="209.2935215132403" r="1" fill="none" stroke="rgb(0,70.125,0)"></circle><circle transform="matrix(1,0,0,1,0,0)" cx="508.8168343070384" cy="214.56734606856588" r="1" fill="none" stroke="rgb(0,70.125,0)"></circle><circle transform="matrix(1,0,0,1,0,0)" cx="512.7957954049808" cy="219.54064309097578" r="1" fill="none" stroke="rgb(0,70.635,0)"></circle><circle transform="matrix(1,0,0,1,0,0)" cx="516.6737286248177" cy="224.03187878619656" r="1" fill="none" stroke="rgb(0,70.38,0)"></circle><circle transform="matrix(1,0,0,1,0,0)" cx="520.4554508906845" cy="228.21901821457726" r="1" fill="none" stroke="rgb(0,71.145,0)"></circle><circle transform="matrix(1,0,0,1,0,0)" cx="524.1796539064056" cy="231.92232101821116" r="1" fill="none" stroke="rgb(0,70.635,0)"></circle><circle transform="matrix(1,0,0,1,0,0)" cx="527.9976859834652" cy="234.25125514470096" r="1" fill="none" stroke="rgb(0,54.315,0)"></circle><circle transform="matrix(1,0,0,1,0,0)" cx="531.8633387273036" cy="235.9245338216613" r="1" fill="none" stroke="rgb(0,49.215,0)"></circle><circle transform="matrix(1,0,0,1,0,0)" cx="535.9640227924205" cy="236.05966266068214" r="1" fill="none" stroke="rgb(0,39.525,0)"></circle><circle transform="matrix(1,0,0,1,0,0)" cx="540.0366940138681" cy="236.43752120086106" r="1" fill="none" stroke="rgb(0,38.76,0)"></circle><circle transform="matrix(1,0,0,1,0,0)" cx="544.0354703827338" cy="237.2329272750139" r="1" fill="none" stroke="rgb(0,39.78,0)"></circle><circle transform="matrix(1,0,0,1,0,0)" cx="547.9819939534326" cy="238.26671028832712" r="1" fill="none" stroke="rgb(0,40.035,0)"></circle><circle transform="matrix(1,0,0,1,0,0)" cx="551.867018145954" cy="239.5367432185932" r="1" fill="none" stroke="rgb(0,37.23,0)"></circle><circle transform="matrix(1,0,0,1,0,0)" cx="555.681362034369" cy="241.04062451147075" r="1" fill="none" stroke="rgb(0,37.995,0)"></circle><circle transform="matrix(1,0,0,1,0,0)" cx="559.3209230610844" cy="243.12292048896205" r="1" fill="none" stroke="rgb(0,43.86,0)"></circle><circle transform="matrix(1,0,0,1,0,0)" cx="562.9110002999727" cy="245.2575224872852" r="1" fill="none" stroke="rgb(0,45.135,0)"></circle><circle transform="matrix(1,0,0,1,0,0)" cx="566.3449980952071" cy="247.78747638820082" r="1" fill="none" stroke="rgb(0,46.92,0)"></circle><circle transform="matrix(1,0,0,1,0,0)" cx="569.6060209364091" cy="250.7066168560217" r="1" fill="none" stroke="rgb(0,48.195,0)"></circle><circle transform="matrix(1,0,0,1,0,0)" cx="572.8522739801041" cy="253.4973756692246" r="1" fill="none" stroke="rgb(0,49.47,0)"></circle><circle transform="matrix(1,0,0,1,0,0)" cx="576.0302819940811" cy="256.3303486844754" r="1" fill="none" stroke="rgb(0,49.47,0)"></circle><circle transform="matrix(1,0,0,1,0,0)" cx="579.1395257228846" cy="259.20408266740935" r="1" fill="none" stroke="rgb(0,50.235,0)"></circle><circle transform="matrix(1,0,0,1,0,0)" cx="582.0469898530725" cy="262.45183811487595" r="1" fill="none" stroke="rgb(0,52.275,0)"></circle><circle transform="matrix(1,0,0,1,0,0)" cx="584.8742551894943" cy="265.7331853887921" r="1" fill="none" stroke="rgb(0,57.885,0)"></circle><circle transform="matrix(1,0,0,1,0,0)" cx="587.6924775633064" cy="268.8812134566608" r="1" fill="none" stroke="rgb(0,60.435,0)"></circle><circle transform="matrix(1,0,0,1,0,0)" cx="590.435045541903" cy="272.06168744491265" r="1" fill="none" stroke="rgb(0,62.475,0)"></circle><circle transform="matrix(1,0,0,1,0,0)" cx="593.1016415832307" cy="275.27301024796543" r="1" fill="none" stroke="rgb(0,59.415,0)"></circle><circle transform="matrix(1,0,0,1,0,0)" cx="595.8503577071889" cy="278.1902929629134" r="1" fill="none" stroke="rgb(0,49.215,0)"></circle><circle transform="matrix(1,0,0,1,0,0)" cx="598.696114708442" cy="280.81951807331984" r="1" fill="none" stroke="rgb(0,48.705,0)"></circle><circle transform="matrix(1,0,0,1,0,0)" cx="601.3167133698063" cy="283.80345349216464" r="1" fill="none" stroke="rgb(0,51.255,0)"></circle><circle transform="matrix(1,0,0,1,0,0)" cx="603.9569284171223" cy="286.6597072745504" r="1" fill="none" stroke="rgb(0,54.06,0)"></circle><circle transform="matrix(1,0,0,1,0,0)" cx="606.3563202496848" cy="289.86011602004953" r="1" fill="none" stroke="rgb(0,65.535,0)"></circle><circle transform="matrix(1,0,0,1,0,0)" cx="608.8663970985533" cy="292.77516984856857" r="1" fill="none" stroke="rgb(0,67.575,0)"></circle><circle transform="matrix(1,0,0,1,0,0)" cx="611.3134206023079" cy="295.71908228073437" r="1" fill="none" stroke="rgb(0,66.045,0)"></circle><circle transform="matrix(1,0,0,1,0,0)" cx="613.9864541552924" cy="298.2346572036475" r="1" fill="none" stroke="rgb(0,65.28,0)"></circle><circle transform="matrix(1,0,0,1,0,0)" cx="616.3136715509327" cy="301.23710914148967" r="1" fill="none" stroke="rgb(0,70.89,0)"></circle><circle transform="matrix(1,0,0,1,0,0)" cx="618.8805100968609" cy="303.81812575452784" r="1" fill="none" stroke="rgb(0,72.165,0)"></circle><circle transform="matrix(1,0,0,1,0,0)" cx="621.3971873819422" cy="306.4327118845491" r="1" fill="none" stroke="rgb(0,69.105,0)"></circle><circle transform="matrix(1,0,0,1,0,0)" cx="623.7574831112169" cy="309.22555320664776" r="1" fill="none" stroke="rgb(0,68.85,0)"></circle><circle transform="matrix(1,0,0,1,0,0)" cx="626.1703237766458" cy="311.90278155598605" r="1" fill="none" stroke="rgb(0,69.105,0)"></circle><circle transform="matrix(1,0,0,1,0,0)" cx="628.6421474539724" cy="314.46848962883377" r="1" fill="none" stroke="rgb(0,68.85,0)"></circle><circle transform="matrix(1,0,0,1,0,0)" cx="630.9541608941273" cy="317.2079330820832" r="1" fill="none" stroke="rgb(0,71.655,0)"></circle><circle transform="matrix(1,0,0,1,0,0)" cx="633.3288255574412" cy="319.8375213635411" r="1" fill="none" stroke="rgb(0,75.225,0)"></circle><circle transform="matrix(1,0,0,1,0,0)" cx="635.7723011437978" cy="322.3617538471114" r="1" fill="none" stroke="rgb(0,78.285,0)"></circle><circle transform="matrix(1,0,0,1,0,0)" cx="637.6954108468963" cy="325.460429176348" r="1" fill="none" stroke="rgb(0,87.465,0)"></circle><circle transform="matrix(1,0,0,1,0,0)" cx="639.5569747240395" cy="328.5776107514071" r="1" fill="none" stroke="rgb(0,119.085,0)"></circle><circle transform="matrix(1,0,0,1,0,0)" cx="641.603325982871" cy="331.4497037711921" r="1" fill="none" stroke="rgb(0,121.89,0)"></circle><circle transform="matrix(1,0,0,1,0,0)" cx="643.5961286147373" cy="334.3457786791888" r="1" fill="none" stroke="rgb(0,96.645,0)"></circle><circle transform="matrix(1,0,0,1,0,0)" cx="645.789694604269" cy="337.0103053957274" r="1" fill="none" stroke="rgb(0,93.33,0)"></circle><circle transform="matrix(1,0,0,1,0,0)" cx="647.8079076528207" cy="339.8301929021921" r="1" fill="none" stroke="rgb(0,98.685,0)"></circle><circle transform="matrix(1,0,0,1,0,0)" cx="649.90693834651" cy="342.55207728686406" r="1" fill="none" stroke="rgb(0,96.135,0)"></circle><circle transform="matrix(1,0,0,1,0,0)" cx="652.4916524863395" cy="344.81787455756944" r="1" fill="none" stroke="rgb(0,73.185,0)"></circle><circle transform="matrix(1,0,0,1,0,0)" cx="655.1792509431128" cy="347.00916732523194" r="1" fill="none" stroke="rgb(0,68.595,0)"></circle><circle transform="matrix(1,0,0,1,0,0)" cx="657.7007846767251" cy="349.3657118301869" r="1" fill="none" stroke="rgb(0,61.71,0)"></circle><circle transform="matrix(1,0,0,1,0,0)" cx="660.3273233461623" cy="351.6511644874953" r="1" fill="none" stroke="rgb(0,61.455,0)"></circle><circle transform="matrix(1,0,0,1,0,0)" cx="662.6420399781747" cy="354.2092563468176" r="1" fill="none" stroke="rgb(0,69.36,0)"></circle><circle transform="matrix(1,0,0,1,0,0)" cx="664.7758128154724" cy="356.9159342874619" r="1" fill="none" stroke="rgb(0,73.695,0)"></circle><circle transform="matrix(1,0,0,1,0,0)" cx="667.0107510037635" cy="359.54771851843384" r="1" fill="none" stroke="rgb(0,81.855,0)"></circle><circle transform="matrix(1,0,0,1,0,0)" cx="669.3513780827119" cy="362.1107559057456" r="1" fill="none" stroke="rgb(0,77.01,0)"></circle><circle transform="matrix(1,0,0,1,0,0)" cx="672.2438135396258" cy="364.3008390883516" r="1" fill="none" stroke="rgb(0,54.825,0)"></circle><circle transform="matrix(1,0,0,1,0,0)" cx="674.9622626544948" cy="366.651215119496" r="1" fill="none" stroke="rgb(0,52.275,0)"></circle><circle transform="matrix(1,0,0,1,0,0)" cx="677.5008670822576" cy="369.15457934453383" r="1" fill="none" stroke="rgb(0,56.1,0)"></circle><circle transform="matrix(1,0,0,1,0,0)" cx="680.0059719986388" cy="371.70701053758955" r="1" fill="none" stroke="rgb(0,56.61,0)"></circle><circle transform="matrix(1,0,0,1,0,0)" cx="682.4766608317507" cy="374.30807164715367" r="1" fill="none" stroke="rgb(0,55.335,0)"></circle><circle transform="matrix(1,0,0,1,0,0)" cx="684.9120225110253" cy="376.9573089109993" r="1" fill="none" stroke="rgb(0,56.61,0)"></circle><circle transform="matrix(1,0,0,1,0,0)" cx="687.1547980937895" cy="379.74343448207037" r="1" fill="none" stroke="rgb(0,56.61,0)"></circle><circle transform="matrix(1,0,0,1,0,0)" cx="689.6731494267233" cy="382.39841369774365" r="1" fill="none" stroke="rgb(0,55.845,0)"></circle><circle transform="matrix(1,0,0,1,0,0)" cx="692.3152783443624" cy="385.02083602599896" r="1" fill="none" stroke="rgb(0,53.04,0)"></circle><circle transform="matrix(1,0,0,1,0,0)" cx="694.602947906398" cy="387.8629266293966" r="1" fill="none" stroke="rgb(0,53.295,0)"></circle><circle transform="matrix(1,0,0,1,0,0)" cx="697.3356836734232" cy="390.51314956863916" r="1" fill="none" stroke="rgb(0,53.04,0)"></circle><circle transform="matrix(1,0,0,1,0,0)" cx="699.7092840187258" cy="393.3770914958866" r="1" fill="none" stroke="rgb(0,53.04,0)"></circle><circle transform="matrix(1,0,0,1,0,0)" cx="702.2075778857774" cy="396.21672885463596" r="1" fill="none" stroke="rgb(0,53.295,0)"></circle><circle transform="matrix(1,0,0,1,0,0)" cx="704.6678199164425" cy="399.11077317428726" r="1" fill="none" stroke="rgb(0,53.55,0)"></circle><circle transform="matrix(1,0,0,1,0,0)" cx="707.255213975936" cy="401.989842862218" r="1" fill="none" stroke="rgb(0,50.49,0)"></circle><circle transform="matrix(1,0,0,1,0,0)" cx="709.9718563026091" cy="404.86128015488345" r="1" fill="none" stroke="rgb(0,49.215,0)"></circle><circle transform="matrix(1,0,0,1,0,0)" cx="712.6512221718792" cy="407.7961299493276" r="1" fill="none" stroke="rgb(0,48.195,0)"></circle><circle transform="matrix(1,0,0,1,0,0)" cx="715.2919877803465" cy="410.79392449842794" r="1" fill="none" stroke="rgb(0,48.45,0)"></circle><circle transform="matrix(1,0,0,1,0,0)" cx="717.8928349033134" cy="413.8541700833605" r="1" fill="none" stroke="rgb(0,49.725,0)"></circle><circle transform="matrix(1,0,0,1,0,0)" cx="720.2812612115908" cy="417.03197013372255" r="1" fill="none" stroke="rgb(0,52.02,0)"></circle><circle transform="matrix(1,0,0,1,0,0)" cx="723.1415743680022" cy="420.106982744173" r="1" fill="none" stroke="rgb(0,49.725,0)"></circle><circle transform="matrix(1,0,0,1,0,0)" cx="725.7884828000274" cy="423.3038508379423" r="1" fill="none" stroke="rgb(0,47.43,0)"></circle><circle transform="matrix(1,0,0,1,0,0)" cx="728.5653780504026" cy="426.5188944745115" r="1" fill="none" stroke="rgb(0,44.115,0)"></circle><circle transform="matrix(1,0,0,1,0,0)" cx="731.2986773483386" cy="429.8044887470061" r="1" fill="none" stroke="rgb(0,45.9,0)"></circle><circle transform="matrix(1,0,0,1,0,0)" cx="734.3369009121549" cy="433.0760102942379" r="1" fill="none" stroke="rgb(0,46.155,0)"></circle><circle transform="matrix(1,0,0,1,0,0)" cx="736.9796939742657" cy="436.5064347349713" r="1" fill="none" stroke="rgb(0,44.88,0)"></circle><circle transform="matrix(1,0,0,1,0,0)" cx="740.2792695476273" cy="439.859581012186" r="1" fill="none" stroke="rgb(0,37.23,0)"></circle><circle transform="matrix(1,0,0,1,0,0)" cx="743.3566798119081" cy="443.3366928087588" r="1" fill="none" stroke="rgb(0,37.485,0)"></circle><circle transform="matrix(1,0,0,1,0,0)" cx="746.3856979819011" cy="446.8978716836748" r="1" fill="none" stroke="rgb(0,35.955,0)"></circle><circle transform="matrix(1,0,0,1,0,0)" cx="748.6533051914091" cy="450.6550792356186" r="1" fill="none" stroke="rgb(0,33.915,0)"></circle><circle transform="matrix(1,0,0,1,0,0)" cx="747.3013150465754" cy="454.97984956877076" r="1" fill="none" stroke="rgb(0,35.19,0)"></circle><circle transform="matrix(1,0,0,1,0,0)" cx="745.1630983022168" cy="459.3422655189194" r="1" fill="none" stroke="rgb(0,39.27,0)"></circle><circle transform="matrix(1,0,0,1,0,0)" cx="742.0570737466869" cy="463.7272014290574" r="1" fill="none" stroke="rgb(0,57.63,0)"></circle><circle transform="matrix(1,0,0,1,0,0)" cx="739.414396621919" cy="467.95573698608894" r="1" fill="none" stroke="rgb(0,60.69,0)"></circle><circle transform="matrix(1,0,0,1,0,0)" cx="737.2398144985891" cy="472.0519869935107" r="1" fill="none" stroke="rgb(0,65.535,0)"></circle><circle transform="matrix(1,0,0,1,0,0)" cx="735.3576534970065" cy="476.0514854062519" r="1" fill="none" stroke="rgb(0,64.26,0)"></circle><circle transform="matrix(1,0,0,1,0,0)" cx="734.4898399707448" cy="479.93617415529866" r="1" fill="none" stroke="rgb(0,53.295,0)"></circle><circle transform="matrix(1,0,0,1,0,0)" cx="734.1001829880068" cy="483.77283948064616" r="1" fill="none" stroke="rgb(0,48.96,0)"></circle><circle transform="matrix(1,0,0,1,0,0)" cx="736.1697996315104" cy="487.5548487220636" r="1" fill="none" stroke="rgb(0,28.815,0)"></circle><circle transform="matrix(1,0,0,1,0,0)" cx="739.8" cy="491.39999999999725" r="1" fill="none" stroke="rgb(0,24.99,0)"></circle><circle transform="matrix(1,0,0,1,0,0)" cx="749.1282007884729" cy="495.448718110292" r="1" fill="none" stroke="rgb(0,21.165,0)"></circle><circle transform="matrix(1,0,0,1,0,0)" cx="756.589080596236" cy="499.73390259860605" r="1" fill="none" stroke="rgb(0,21.675,0)"></circle><circle transform="matrix(1,0,0,1,0,0)" cx="763.6174687246362" cy="504.23744994738877" r="1" fill="none" stroke="rgb(0,20.145,0)"></circle><circle transform="matrix(1,0,0,1,0,0)" cx="769.8494572314879" cy="508.9185549486753" r="1" fill="none" stroke="rgb(0,19.125,0)"></circle><circle transform="matrix(1,0,0,1,0,0)" cx="776.3588506742775" cy="513.826747922844" r="1" fill="none" stroke="rgb(0,15.555,0)"></circle><circle transform="matrix(1,0,0,1,0,0)" cx="782.0642711855155" cy="518.8758631564702" r="1" fill="none" stroke="rgb(0,144.585,0)"></circle><circle transform="matrix(1,0,0,1,0,0)" cx="788.0377075460442" cy="524.1491078020082" r="1" fill="none" stroke="rgb(0,147.135,0)"></circle><circle transform="matrix(1,0,0,1,0,0)" cx="793.3798727861011" cy="529.5489296322995" r="1" fill="none" stroke="rgb(0,149.175,0)"></circle><circle transform="matrix(1,0,0,1,0,0)" cx="798.8023457209915" cy="535.149832516616" r="1" fill="none" stroke="rgb(0,130.05,0)"></circle><circle transform="matrix(1,0,0,1,0,0)" cx="803.9440984979259" cy="540.9021221173272" r="1" fill="none" stroke="rgb(0,121.38,0)"></circle><circle transform="matrix(1,0,0,1,0,0)" cx="809.1568642444845" cy="546.8574505861228" r="1" fill="none" stroke="rgb(0,113.22,0)"></circle><circle transform="matrix(1,0,0,1,0,0)" cx="813.9045501592436" cy="552.9210332047815" r="1" fill="none" stroke="rgb(0,112.455,0)"></circle><circle transform="matrix(1,0,0,1,0,0)" cx="819.7725773139036" cy="559.4026916248492" r="1" fill="none" stroke="rgb(0,132.6,0)"></circle><circle transform="matrix(1,0,0,1,0,0)" cx="824.9878675659035" cy="565.9657227741625" r="1" fill="none" stroke="rgb(0,137.955,0)"></circle><circle transform="matrix(1,0,0,1,0,0)" cx="829.2013103461537" cy="572.4989194035377" r="1" fill="none" stroke="rgb(0,129.54,0)"></circle><circle transform="matrix(1,0,0,1,0,0)" cx="832.4187593701694" cy="578.9587354729982" r="1" fill="none" stroke="rgb(0,130.815,0)"></circle><circle transform="matrix(1,0,0,1,0,0)" cx="834.6474029323931" cy="585.3018635606737" r="1" fill="none" stroke="rgb(0,149.685,0)"></circle><circle transform="matrix(1,0,0,1,0,0)" cx="836.4143153900131" cy="591.6359245777704" r="1" fill="none" stroke="rgb(0,156.06,0)"></circle><circle transform="matrix(1,0,0,1,0,0)" cx="837.5499982393644" cy="597.8896441861273" r="1" fill="none" stroke="rgb(0,161.925,0)"></circle><circle transform="matrix(1,0,0,1,0,0)" cx="838.0601001895848" cy="604.0366944496645" r="1" fill="none" stroke="rgb(0,161.16,0)"></circle><circle transform="matrix(1,0,0,1,0,0)" cx="837.9510669385311" cy="610.0509502859783" r="1" fill="none" stroke="rgb(0,166.515,0)"></circle><circle transform="matrix(1,0,0,1,0,0)" cx="837.3994939752283" cy="615.9674827909996" r="1" fill="none" stroke="rgb(0,168.3,0)"></circle><circle transform="matrix(1,0,0,1,0,0)" cx="836.2420875251237" cy="621.7049664107815" r="1" fill="none" stroke="rgb(0,172.38,0)"></circle><circle transform="matrix(1,0,0,1,0,0)" cx="834.9896025951459" cy="627.4367471990921" r="1" fill="none" stroke="rgb(0,175.95,0)"></circle><circle transform="matrix(1,0,0,1,0,0)" cx="833.3093373917785" cy="633.0234846496687" r="1" fill="none" stroke="rgb(0,185.385,0)"></circle><circle transform="matrix(1,0,0,1,0,0)" cx="831.3730235383755" cy="638.5194646067444" r="1" fill="none" stroke="rgb(0,191.505,0)"></circle><circle transform="matrix(1,0,0,1,0,0)" cx="829.020229796836" cy="643.8413790016727" r="1" fill="none" stroke="rgb(0,192.015,0)"></circle><circle transform="matrix(1,0,0,1,0,0)" cx="826.42126444607" cy="649.0490404948802" r="1" fill="none" stroke="rgb(0,188.445,0)"></circle><circle transform="matrix(1,0,0,1,0,0)" cx="823.2571103465796" cy="653.9751208285512" r="1" fill="none" stroke="rgb(0,172.635,0)"></circle><circle transform="matrix(1,0,0,1,0,0)" cx="820.0210262511556" cy="658.840776113936" r="1" fill="none" stroke="rgb(0,170.34,0)"></circle><circle transform="matrix(1,0,0,1,0,0)" cx="816.5550506222339" cy="663.5607372627466" r="1" fill="none" stroke="rgb(0,187.935,0)"></circle><circle transform="matrix(1,0,0,1,0,0)" cx="813.0220777097006" cy="668.2132334688081" r="1" fill="none" stroke="rgb(0,197.37,0)"></circle><circle transform="matrix(1,0,0,1,0,0)" cx="809.2670163935136" cy="672.7081451261517" r="1" fill="none" stroke="rgb(0,216.495,0)"></circle><circle transform="matrix(1,0,0,1,0,0)" cx="805.4503359726609" cy="677.128850950677" r="1" fill="none" stroke="rgb(0,220.83,0)"></circle><circle transform="matrix(1,0,0,1,0,0)" cx="801.5734389887336" cy="681.4745278723645" r="1" fill="none" stroke="rgb(0,219.3,0)"></circle><circle transform="matrix(1,0,0,1,0,0)" cx="797.7897176061733" cy="685.840827361975" r="1" fill="none" stroke="rgb(0,213.69,0)"></circle><circle transform="matrix(1,0,0,1,0,0)" cx="793.7951033430422" cy="690.0364555517208" r="1" fill="none" stroke="rgb(0,226.185,0)"></circle><circle transform="matrix(1,0,0,1,0,0)" cx="789.7445047523221" cy="694.1547160588173" r="1" fill="none" stroke="rgb(0,237.66,0)"></circle><circle transform="matrix(1,0,0,1,0,0)" cx="784.1666948833725" cy="697.1598793911636" r="1" fill="none" stroke="rgb(0,255,0)"></circle><circle transform="matrix(1,0,0,1,0,0)" cx="777.1124417334586" cy="698.9822396996067" r="1" fill="none" stroke="rgb(0,255,0)"></circle><circle transform="matrix(1,0,0,1,0,0)" cx="765.1800396796425" cy="696.9598683425668" r="1" fill="none" stroke="rgb(0,255,0)"></circle><circle transform="matrix(1,0,0,1,0,0)" cx="754.6638470233347" cy="695.6083721360959" r="1" fill="none" stroke="rgb(0,255,0)"></circle><circle transform="matrix(1,0,0,1,0,0)" cx="746.0856591307927" cy="695.4416884685913" r="1" fill="none" stroke="rgb(0,255,0)"></circle><circle transform="matrix(1,0,0,1,0,0)" cx="738.8272125201636" cy="696.0895915880966" r="1" fill="none" stroke="rgb(0,255,0)"></circle><circle transform="matrix(1,0,0,1,0,0)" cx="732.4334829758999" cy="697.2620423596991" r="1" fill="none" stroke="rgb(0,255,0)"></circle><circle transform="matrix(1,0,0,1,0,0)" cx="726.6048269933291" cy="698.7609484908818" r="1" fill="none" stroke="rgb(0,255,0)"></circle><circle transform="matrix(1,0,0,1,0,0)" cx="721.0554549908604" cy="700.3703854447822" r="1" fill="none" stroke="rgb(0,255,0)"></circle><circle transform="matrix(1,0,0,1,0,0)" cx="715.9077578732486" cy="702.2268176839151" r="1" fill="none" stroke="rgb(0,255,0)"></circle><circle transform="matrix(1,0,0,1,0,0)" cx="710.5003334475512" cy="703.7229942403128" r="1" fill="none" stroke="rgb(0,255,0)"></circle><circle transform="matrix(1,0,0,1,0,0)" cx="704.8472529689734" cy="704.847252968969" r="1" fill="none" stroke="rgb(0,81.09,0)"></circle><circle transform="matrix(1,0,0,1,0,0)" cx="699.5892722285589" cy="706.2346632388334" r="1" fill="none" stroke="rgb(0,82.365,0)"></circle><circle transform="matrix(1,0,0,1,0,0)" cx="694.4640535026884" cy="707.6412536382854" r="1" fill="none" stroke="rgb(0,78.285,0)"></circle><circle transform="matrix(1,0,0,1,0,0)" cx="689.9521517356555" cy="709.6059656405873" r="1" fill="none" stroke="rgb(0,51.765,0)"></circle><circle transform="matrix(1,0,0,1,0,0)" cx="685.54793742172" cy="711.6176078221083" r="1" fill="none" stroke="rgb(0,50.235,0)"></circle><circle transform="matrix(1,0,0,1,0,0)" cx="681.363554136581" cy="713.8187449380071" r="1" fill="none" stroke="rgb(0,44.88,0)"></circle><circle transform="matrix(1,0,0,1,0,0)" cx="677.2728354107202" cy="716.0816615934182" r="1" fill="none" stroke="rgb(0,44.115,0)"></circle><circle transform="matrix(1,0,0,1,0,0)" cx="673.2705838749322" cy="718.4115968865715" r="1" fill="none" stroke="rgb(0,41.565,0)"></circle><circle transform="matrix(1,0,0,1,0,0)" cx="669.2411106879499" cy="720.6713783909285" r="1" fill="none" stroke="rgb(0,41.055,0)"></circle><circle transform="matrix(1,0,0,1,0,0)" cx="665.2937056588848" cy="723.0046707910294" r="1" fill="none" stroke="rgb(0,39.27,0)"></circle><circle transform="matrix(1,0,0,1,0,0)" cx="661.4227620781231" cy="725.4162557928955" r="1" fill="none" stroke="rgb(0,39.015,0)"></circle><circle transform="matrix(1,0,0,1,0,0)" cx="657.6225182606734" cy="727.910720313224" r="1" fill="none" stroke="rgb(0,37.74,0)"></circle><circle transform="matrix(1,0,0,1,0,0)" cx="653.7858878614829" cy="730.3435779079192" r="1" fill="none" stroke="rgb(0,37.23,0)"></circle><circle transform="matrix(1,0,0,1,0,0)" cx="650.0126921196627" cy="732.8647466992916" r="1" fill="none" stroke="rgb(0,36.21,0)"></circle><circle transform="matrix(1,0,0,1,0,0)" cx="646.2003610694346" cy="735.3263376775305" r="1" fill="none" stroke="rgb(0,35.955,0)"></circle><circle transform="matrix(1,0,0,1,0,0)" cx="642.443885088089" cy="737.8812187114794" r="1" fill="none" stroke="rgb(0,34.425,0)"></circle><circle transform="matrix(1,0,0,1,0,0)" cx="638.645319919955" cy="740.3782387311592" r="1" fill="none" stroke="rgb(0,34.17,0)"></circle><circle transform="matrix(1,0,0,1,0,0)" cx="634.8947395513965" cy="742.9730592115875" r="1" fill="none" stroke="rgb(0,32.895,0)"></circle><circle transform="matrix(1,0,0,1,0,0)" cx="631.098930416018" cy="745.511411079118" r="1" fill="none" stroke="rgb(0,32.64,0)"></circle><circle transform="matrix(1,0,0,1,0,0)" cx="627.4271970055514" cy="748.3106686667817" r="1" fill="none" stroke="rgb(0,31.62,0)"></circle><circle transform="matrix(1,0,0,1,0,0)" cx="623.7019114341015" cy="751.0571212789728" r="1" fill="none" stroke="rgb(0,31.365,0)"></circle><circle transform="matrix(1,0,0,1,0,0)" cx="620.003018132284" cy="753.9114209463418" r="1" fill="none" stroke="rgb(0,30.09,0)"></circle><circle transform="matrix(1,0,0,1,0,0)" cx="616.1703636002318" cy="756.550519454641" r="1" fill="none" stroke="rgb(0,29.835,0)"></circle><circle transform="matrix(1,0,0,1,0,0)" cx="612.3605305683886" cy="759.2978791342214" r="1" fill="none" stroke="rgb(0,28.305,0)"></circle><circle transform="matrix(1,0,0,1,0,0)" cx="608.5665706950759" cy="762.1559696692868" r="1" fill="none" stroke="rgb(0,27.795,0)"></circle><circle transform="matrix(1,0,0,1,0,0)" cx="604.7125643233061" cy="764.9607295765907" r="1" fill="none" stroke="rgb(0,27.03,0)"></circle><circle transform="matrix(1,0,0,1,0,0)" cx="600.7329921473524" cy="767.5436163088094" r="1" fill="none" stroke="rgb(0,26.52,0)"></circle><circle transform="matrix(1,0,0,1,0,0)" cx="596.8274069056043" cy="770.405536635315" r="1" fill="none" stroke="rgb(0,25.245,0)"></circle><circle transform="matrix(1,0,0,1,0,0)" cx="592.919754697517" cy="773.3819664555801" r="1" fill="none" stroke="rgb(0,25.245,0)"></circle><circle transform="matrix(1,0,0,1,0,0)" cx="589.993983751156" cy="779.3694615199271" r="1" fill="none" stroke="rgb(0,21.93,0)"></circle><circle transform="matrix(1,0,0,1,0,0)" cx="587.3497767534245" cy="786.703048309644" r="1" fill="none" stroke="rgb(0,21.42,0)"></circle><circle transform="matrix(1,0,0,1,0,0)" cx="585.3458839117246" cy="796.7758682280653" r="1" fill="none" stroke="rgb(0,20.145,0)"></circle><circle transform="matrix(1,0,0,1,0,0)" cx="582.7974863384552" cy="805.9922114277654" r="1" fill="none" stroke="rgb(0,20.145,0)"></circle><circle transform="matrix(1,0,0,1,0,0)" cx="579.9821828733795" cy="815.2019253762817" r="1" fill="none" stroke="rgb(0,19.125,0)"></circle><circle transform="matrix(1,0,0,1,0,0)" cx="576.6757623088326" cy="823.5271659510065" r="1" fill="none" stroke="rgb(0,18.87,0)"></circle><circle transform="matrix(1,0,0,1,0,0)" cx="573.1712420514506" cy="832.0017357168972" r="1" fill="none" stroke="rgb(0,16.83,0)"></circle><circle transform="matrix(1,0,0,1,0,0)" cx="569.2640485840861" cy="839.7437290064156" r="1" fill="none" stroke="rgb(0,154.02,0)"></circle><circle transform="matrix(1,0,0,1,0,0)" cx="565.1334605916322" cy="847.4454139420731" r="1" fill="none" stroke="rgb(0,145.35,0)"></circle><circle transform="matrix(1,0,0,1,0,0)" cx="560.6786196286386" cy="854.5712423394099" r="1" fill="none" stroke="rgb(0,147.135,0)"></circle><circle transform="matrix(1,0,0,1,0,0)" cx="556.0487802870681" cy="861.8208088207173" r="1" fill="none" stroke="rgb(0,144.075,0)"></circle><circle transform="matrix(1,0,0,1,0,0)" cx="551.1517082667713" cy="868.6574385737181" r="1" fill="none" stroke="rgb(0,140.76,0)"></circle><circle transform="matrix(1,0,0,1,0,0)" cx="546.0809500903418" cy="875.608381086641" r="1" fill="none" stroke="rgb(0,140.76,0)"></circle><circle transform="matrix(1,0,0,1,0,0)" cx="540.7386807249289" cy="881.9558733194567" r="1" fill="none" stroke="rgb(0,138.21,0)"></circle><circle transform="matrix(1,0,0,1,0,0)" cx="535.0523089520228" cy="886.7976680800699" r="1" fill="none" stroke="rgb(0,100.98,0)"></circle><circle transform="matrix(1,0,0,1,0,0)" cx="529.1411979732621" cy="890.6601702844187" r="1" fill="none" stroke="rgb(0,88.74,0)"></circle><circle transform="matrix(1,0,0,1,0,0)" cx="522.9499715740861" cy="892.280398240765" r="1" fill="none" stroke="rgb(0,83.64,0)"></circle><circle transform="matrix(1,0,0,1,0,0)" cx="516.6832305936786" cy="893.2654424689274" r="1" fill="none" stroke="rgb(0,86.445,0)"></circle><circle transform="matrix(1,0,0,1,0,0)" cx="510.3509251204945" cy="893.2533966972003" r="1" fill="none" stroke="rgb(0,102.765,0)"></circle><circle transform="matrix(1,0,0,1,0,0)" cx="504.0252405038682" cy="893.141666873402" r="1" fill="none" stroke="rgb(0,104.55,0)"></circle><circle transform="matrix(1,0,0,1,0,0)" cx="497.6907805833895" cy="891.850591308905" r="1" fill="none" stroke="rgb(0,103.53,0)"></circle><circle transform="matrix(1,0,0,1,0,0)" cx="491.4000000000053" cy="890.28" r="1" fill="none" stroke="rgb(0,103.785,0)"></circle><circle transform="matrix(1,0,0,1,0,0)" cx="485.1657657589437" cy="888.2510354319711" r="1" fill="none" stroke="rgb(0,118.32,0)"></circle><circle transform="matrix(1,0,0,1,0,0)" cx="478.9952630248709" cy="886.1251308196348" r="1" fill="none" stroke="rgb(0,121.38,0)"></circle><circle transform="matrix(1,0,0,1,0,0)" cx="472.9154287415416" cy="883.3643869350772" r="1" fill="none" stroke="rgb(0,130.56,0)"></circle><circle transform="matrix(1,0,0,1,0,0)" cx="466.90792995240133" cy="880.690305690732" r="1" fill="none" stroke="rgb(0,135.405,0)"></circle><circle transform="matrix(1,0,0,1,0,0)" cx="461.06457522779135" cy="876.848117914577" r="1" fill="none" stroke="rgb(0,146.37,0)"></circle><circle transform="matrix(1,0,0,1,0,0)" cx="455.3527516664816" cy="872.7400549215643" r="1" fill="none" stroke="rgb(0,147.39,0)"></circle><circle transform="matrix(1,0,0,1,0,0)" cx="449.90067823159376" cy="867.2961541340404" r="1" fill="none" stroke="rgb(0,146.625,0)"></circle><circle transform="matrix(1,0,0,1,0,0)" cx="444.56547728169596" cy="862.1334215871948" r="1" fill="none" stroke="rgb(0,149.94,0)"></circle><circle transform="matrix(1,0,0,1,0,0)" cx="439.4581698585347" cy="856.3623211806325" r="1" fill="none" stroke="rgb(0,161.415,0)"></circle><circle transform="matrix(1,0,0,1,0,0)" cx="434.43595390025547" cy="851.0568323443142" r="1" fill="none" stroke="rgb(0,164.22,0)"></circle><circle transform="matrix(1,0,0,1,0,0)" cx="429.5983656135685" cy="845.5073983795959" r="1" fill="none" stroke="rgb(0,173.655,0)"></circle><circle transform="matrix(1,0,0,1,0,0)" cx="424.7859426647799" cy="840.6031176340498" r="1" fill="none" stroke="rgb(0,178.755,0)"></circle><circle transform="matrix(1,0,0,1,0,0)" cx="420.03915076404826" cy="835.9885070578005" r="1" fill="none" stroke="rgb(0,193.8,0)"></circle><circle transform="matrix(1,0,0,1,0,0)" cx="415.4207090215892" cy="831.3118081832667" r="1" fill="none" stroke="rgb(0,179.775,0)"></circle><circle transform="matrix(1,0,0,1,0,0)" cx="411.56168556128523" cy="823.9505127760065" r="1" fill="none" stroke="rgb(0,108.375,0)"></circle><circle transform="matrix(1,0,0,1,0,0)" cx="407.8252765193837" cy="816.902057128889" r="1" fill="none" stroke="rgb(0,106.335,0)"></circle><circle transform="matrix(1,0,0,1,0,0)" cx="403.2927886165668" cy="813.4657220230602" r="1" fill="none" stroke="rgb(0,193.035,0)"></circle><circle transform="matrix(1,0,0,1,0,0)" cx="398.6968352852897" cy="810.486385876736" r="1" fill="none" stroke="rgb(0,203.49,0)"></circle><circle transform="matrix(1,0,0,1,0,0)" cx="394.2784805757747" cy="807.0984327878899" r="1" fill="none" stroke="rgb(0,214.455,0)"></circle><circle transform="matrix(1,0,0,1,0,0)" cx="389.832294288847" cy="803.9932557758926" r="1" fill="none" stroke="rgb(0,196.35,0)"></circle><circle transform="matrix(1,0,0,1,0,0)" cx="385.45956920411794" cy="800.8266774581386" r="1" fill="none" stroke="rgb(0,138.21,0)"></circle><circle transform="matrix(1,0,0,1,0,0)" cx="380.8562671071563" cy="798.4470301405236" r="1" fill="none" stroke="rgb(0,126.99,0)"></circle><circle transform="matrix(1,0,0,1,0,0)" cx="375.2198883466385" cy="798.8617440531625" r="1" fill="none" stroke="rgb(0,115.77,0)"></circle><circle transform="matrix(1,0,0,1,0,0)" cx="369.4108857313562" cy="799.5093318936506" r="1" fill="none" stroke="rgb(0,108.375,0)"></circle><circle transform="matrix(1,0,0,1,0,0)" cx="362.4509906302642" cy="802.7104472750052" r="1" fill="none" stroke="rgb(0,86.955,0)"></circle><circle transform="matrix(1,0,0,1,0,0)" cx="355.4324481622814" cy="805.60247364917" r="1" fill="none" stroke="rgb(0,83.13,0)"></circle><circle transform="matrix(1,0,0,1,0,0)" cx="346.7362423759651" cy="811.7947078684267" r="1" fill="none" stroke="rgb(0,75.48,0)"></circle><circle transform="matrix(1,0,0,1,0,0)" cx="337.96617449161556" cy="817.4634766266572" r="1" fill="none" stroke="rgb(0,72.675,0)"></circle><circle transform="matrix(1,0,0,1,0,0)" cx="327.24109815996917" cy="826.4900096193187" r="1" fill="none" stroke="rgb(0,56.865,0)"></circle><circle transform="matrix(1,0,0,1,0,0)" cx="316.441141210379" cy="834.7760942917159" r="1" fill="none" stroke="rgb(0,53.295,0)"></circle><circle transform="matrix(1,0,0,1,0,0)" cx="303.0676083564102" cy="847.0979907981003" r="1" fill="none" stroke="rgb(0,58.14,0)"></circle><circle transform="matrix(1,0,0,1,0,0)" cx="289.7860873884381" cy="858.1343455983601" r="1" fill="none" stroke="rgb(0,69.36,0)"></circle><circle transform="matrix(1,0,0,1,0,0)" cx="274.24046562608197" cy="872.1211927782628" r="1" fill="none" stroke="rgb(0,123.42,0)"></circle><circle transform="matrix(1,0,0,1,0,0)" cx="260.04067654146263" cy="882.6072512732961" r="1" fill="none" stroke="rgb(0,128.775,0)"></circle><circle transform="matrix(1,0,0,1,0,0)" cx="247.1528209378891" cy="889.975171228968" r="1" fill="none" stroke="rgb(0,112.455,0)"></circle><circle transform="matrix(1,0,0,1,0,0)" cx="235.42482350264044" cy="894.7523365708269" r="1" fill="none" stroke="rgb(0,112.455,0)"></circle><circle transform="matrix(1,0,0,1,0,0)" cx="224.77255866739404" cy="897.3014869748912" r="1" fill="none" stroke="rgb(0,127.5,0)"></circle><circle transform="matrix(1,0,0,1,0,0)" cx="214.88870309942968" cy="898.2740177086325" r="1" fill="none" stroke="rgb(0,129.285,0)"></circle><circle transform="matrix(1,0,0,1,0,0)" cx="205.73739078490604" cy="897.8567796167564" r="1" fill="none" stroke="rgb(0,115.515,0)"></circle><circle transform="matrix(1,0,0,1,0,0)" cx="197.2722597528533" cy="896.2321039852286" r="1" fill="none" stroke="rgb(0,116.79,0)"></circle><circle transform="matrix(1,0,0,1,0,0)" cx="189.22050899799598" cy="893.8652949233881" r="1" fill="none" stroke="rgb(0,131.07,0)"></circle><circle transform="matrix(1,0,0,1,0,0)" cx="181.61225880164636" cy="890.7759494551742" r="1" fill="none" stroke="rgb(0,130.56,0)"></circle><circle transform="matrix(1,0,0,1,0,0)" cx="174.589546034705" cy="886.8440873983371" r="1" fill="none" stroke="rgb(0,125.46,0)"></circle><circle transform="matrix(1,0,0,1,0,0)" cx="167.8435828035719" cy="882.5125220329962" r="1" fill="none" stroke="rgb(0,133.62,0)"></circle><circle transform="matrix(1,0,0,1,0,0)" cx="160.92186612670946" cy="878.3401796552374" r="1" fill="none" stroke="rgb(0,154.275,0)"></circle><circle transform="matrix(1,0,0,1,0,0)" cx="154.2896635326219" cy="873.7766188548289" r="1" fill="none" stroke="rgb(0,154.785,0)"></circle><circle transform="matrix(1,0,0,1,0,0)" cx="147.71942985110582" cy="869.1000149617828" r="1" fill="none" stroke="rgb(0,181.05,0)"></circle><circle transform="matrix(1,0,0,1,0,0)" cx="141.58273792832813" cy="863.9175479848959" r="1" fill="none" stroke="rgb(0,193.035,0)"></circle><circle transform="matrix(1,0,0,1,0,0)" cx="137.40307862942802" cy="856.6964851461852" r="1" fill="none" stroke="rgb(0,208.335,0)"></circle><circle transform="matrix(1,0,0,1,0,0)" cx="133.99994851707777" cy="848.8000514829349" r="1" fill="none" stroke="rgb(0,201.195,0)"></circle><circle transform="matrix(1,0,0,1,0,0)" cx="131.92033786570914" cy="839.7600277181871" r="1" fill="none" stroke="rgb(0,213.945,0)"></circle><circle transform="matrix(1,0,0,1,0,0)" cx="129.1171715441131" cy="831.6062207044462" r="1" fill="none" stroke="rgb(0,205.275,0)"></circle><circle transform="matrix(1,0,0,1,0,0)" cx="126.08140956817113" cy="823.8143406727538" r="1" fill="none" stroke="rgb(0,188.19,0)"></circle><circle transform="matrix(1,0,0,1,0,0)" cx="122.93044037613157" cy="816.249614484291" r="1" fill="none" stroke="rgb(0,183.09,0)"></circle><circle transform="matrix(1,0,0,1,0,0)" cx="119.51585846365464" cy="809.0190625163664" r="1" fill="none" stroke="rgb(0,168.3,0)"></circle><circle transform="matrix(1,0,0,1,0,0)" cx="115.95971732507462" cy="801.9912132449534" r="1" fill="none" stroke="rgb(0,158.1,0)"></circle><circle transform="matrix(1,0,0,1,0,0)" cx="123.06806495260736" cy="786.4895240842062" r="1" fill="none" stroke="rgb(0,48.96,0)"></circle><circle transform="matrix(1,0,0,1,0,0)" cx="134.69242121312345" cy="768.0907603011062" r="1" fill="none" stroke="rgb(0,46.41,0)"></circle><circle transform="matrix(1,0,0,1,0,0)" cx="263.10602369510855" cy="662.8079659260376" r="1" fill="none" stroke="rgb(0,159.375,0)"></circle><circle transform="matrix(1,0,0,1,0,0)" cx="259.13122091495575" cy="660.1531459331734" r="1" fill="none" stroke="rgb(0,218.79,0)"></circle><circle transform="matrix(1,0,0,1,0,0)" cx="255.77288138159633" cy="657.0015125884686" r="1" fill="none" stroke="rgb(0,255,0)"></circle><circle transform="matrix(1,0,0,1,0,0)" cx="252.45642209208216" cy="653.785887861485" r="1" fill="none" stroke="rgb(0,255,0)"></circle><circle transform="matrix(1,0,0,1,0,0)" cx="249.18302667547826" cy="650.5068126558632" r="1" fill="none" stroke="rgb(0,255,0)"></circle><circle transform="matrix(1,0,0,1,0,0)" cx="245.95387205656718" cy="647.1648493003989" r="1" fill="none" stroke="rgb(0,255,0)"></circle><circle transform="matrix(1,0,0,1,0,0)" cx="242.77012807434963" cy="643.7605814711754" r="1" fill="none" stroke="rgb(0,255,0)"></circle><circle transform="matrix(1,0,0,1,0,0)" cx="239.63295710134935" cy="640.2946141069884" r="1" fill="none" stroke="rgb(0,255,0)"></circle><circle transform="matrix(1,0,0,1,0,0)" cx="236.5435136638375" cy="636.7675733180732" r="1" fill="none" stroke="rgb(0,255,0)"></circle><circle transform="matrix(1,0,0,1,0,0)" cx="233.34520886068583" cy="633.2668219494781" r="1" fill="none" stroke="rgb(0,255,0)"></circle><circle transform="matrix(1,0,0,1,0,0)" cx="230.03515255757247" cy="629.785563269427" r="1" fill="none" stroke="rgb(0,255,0)"></circle><circle transform="matrix(1,0,0,1,0,0)" cx="226.9314434904113" cy="626.1534601326974" r="1" fill="none" stroke="rgb(0,255,0)"></circle><circle transform="matrix(1,0,0,1,0,0)" cx="223.71594021727827" cy="622.5370677506564" r="1" fill="none" stroke="rgb(0,255,0)"></circle><circle transform="matrix(1,0,0,1,0,0)" cx="220.38620124538033" cy="618.9294134095759" r="1" fill="none" stroke="rgb(0,255,0)"></circle><circle transform="matrix(1,0,0,1,0,0)" cx="217.26812245359326" cy="615.1752887812501" r="1" fill="none" stroke="rgb(0,255,0)"></circle><circle transform="matrix(1,0,0,1,0,0)" cx="214.20139285841276" cy="611.3545488873347" r="1" fill="none" stroke="rgb(0,255,0)"></circle><circle transform="matrix(1,0,0,1,0,0)" cx="210.85474115762503" cy="607.6056510719887" r="1" fill="none" stroke="rgb(0,255,0)"></circle><circle transform="matrix(1,0,0,1,0,0)" cx="207.72519415549675" cy="603.7148010241009" r="1" fill="none" stroke="rgb(0,255,0)"></circle><circle transform="matrix(1,0,0,1,0,0)" cx="204.31222693831592" cy="599.8814295558598" r="1" fill="none" stroke="rgb(0,255,0)"></circle><circle transform="matrix(1,0,0,1,0,0)" cx="201.28882370065622" cy="595.846450328439" r="1" fill="none" stroke="rgb(0,255,0)"></circle><circle transform="matrix(1,0,0,1,0,0)" cx="199.85433582370564" cy="591.2183915919477" r="1" fill="none" stroke="rgb(0,218.025,0)"></circle><circle transform="matrix(1,0,0,1,0,0)" cx="200.37670601368495" cy="585.9592002787399" r="1" fill="none" stroke="rgb(0,158.865,0)"></circle><circle transform="matrix(1,0,0,1,0,0)" cx="202.71227781031422" cy="580.211939833171" r="1" fill="none" stroke="rgb(0,40.545,0)"></circle><circle transform="matrix(1,0,0,1,0,0)" cx="204.63709958315297" cy="574.7123240854405" r="1" fill="none" stroke="rgb(0,29.835,0)"></circle><circle transform="matrix(1,0,0,1,0,0)" cx="206.66265007125958" cy="569.295324349784" r="1" fill="none" stroke="rgb(0,30.345,0)"></circle><circle transform="matrix(1,0,0,1,0,0)" cx="208.61246027688634" cy="564.0074994566569" r="1" fill="none" stroke="rgb(0,31.11,0)"></circle><circle transform="matrix(1,0,0,1,0,0)" cx="209.60719706875472" cy="559.0524664454473" r="1" fill="none" stroke="rgb(0,33.66,0)"></circle><circle transform="matrix(1,0,0,1,0,0)" cx="210.51163757879107" cy="554.1859877387587" r="1" fill="none" stroke="rgb(0,34.935,0)"></circle><circle transform="matrix(1,0,0,1,0,0)" cx="211.1464316000518" cy="549.4377239310397" r="1" fill="none" stroke="rgb(0,37.485,0)"></circle><circle transform="matrix(1,0,0,1,0,0)" cx="212.21431759789323" cy="544.6575172315605" r="1" fill="none" stroke="rgb(0,42.84,0)"></circle><circle transform="matrix(1,0,0,1,0,0)" cx="218.3276947898977" cy="539.0587465974581" r="1" fill="none" stroke="rgb(0,118.32,0)"></circle><circle transform="matrix(1,0,0,1,0,0)" cx="222.41295732232112" cy="534.0033622090622" r="1" fill="none" stroke="rgb(0,174.165,0)"></circle><circle transform="matrix(1,0,0,1,0,0)" cx="226.05385925880904" cy="529.1643481839166" r="1" fill="none" stroke="rgb(0,255,0)"></circle><circle transform="matrix(1,0,0,1,0,0)" cx="229.06503067842647" cy="524.540613619079" r="1" fill="none" stroke="rgb(0,255,0)"></circle><circle transform="matrix(1,0,0,1,0,0)" cx="231.97619062619873" cy="520.0406551947684" r="1" fill="none" stroke="rgb(0,255,0)"></circle><circle transform="matrix(1,0,0,1,0,0)" cx="235.50075261842485" cy="515.5896008553965" r="1" fill="none" stroke="rgb(0,64.005,0)"></circle><circle transform="matrix(1,0,0,1,0,0)" cx="238.38238069853253" cy="511.31291849573256" r="1" fill="none" stroke="rgb(0,57.375,0)"></circle><circle transform="matrix(1,0,0,1,0,0)" cx="240.61584368054423" cy="507.17800174733134" r="1" fill="none" stroke="rgb(0,52.53,0)"></circle><circle transform="matrix(1,0,0,1,0,0)" cx="241.65755346200854" cy="503.17755480643035" r="1" fill="none" stroke="rgb(0,29.07,0)"></circle><circle transform="matrix(1,0,0,1,0,0)" cx="242.58283686255496" cy="499.21939436491476" r="1" fill="none" stroke="rgb(0,24.225,0)"></circle><circle transform="matrix(1,0,0,1,0,0)" cx="241.77079993462868" cy="495.32148884007466" r="1" fill="none" stroke="rgb(0,8.925,0)"></circle></svg>